<?xml version="1.0" encoding="utf-8"?>
<!-- Generator: Adobe Illustrator 19.1.0, SVG Export Plug-In . SVG Version: 6.00 Build 0)  -->
<svg version="1.1" id="Capa_2" xmlns="http://www.w3.org/2000/svg" xmlns:xlink="http://www.w3.org/1999/xlink" x="0px" y="0px"
	 viewBox="0 0 72.9 72.6" style="enable-background:new 0 0 72.9 72.6;" xml:space="preserve">
<style type="text/css">
	.st0{fill:#FFFFFF;}
</style>
<g>
	<path class="st0" d="M65.9,65c-0.1-1.4-0.2-2.9-0.3-4.4c-0.3-2.5-0.9-4.5-1.7-6.1c-0.7-1.3-1.7-2.1-3-2.4c-3.2-0.8-6.4-1.7-9.7-2.5
		c-1.6-0.4-3.2-0.8-4.8-1.3c-0.5-0.1-1-0.1-1.2,0.8c-0.8,2.6-2,4.7-3.8,6.1c-2.6,2.2-6.4,2.2-9.1,0.1c-1.8-1.4-3-3.4-3.9-6
		c-0.3-0.9-0.5-1-1.4-0.8l-4,1c-3.5,0.9-7.1,1.8-10.6,2.6c-1.3,0.3-2.3,1-2.9,2.1c-0.4,0.8-0.8,1.6-1,2.3c-1.2,3.6-1.3,7.4-1.3,10.6
		c0,0.9,0.6,0.9,0.8,0.9c0.3,0,0.7-0.1,0.8-0.9c0-0.4,0-0.7,0-1.1c0-0.7,0-1.4,0.1-2.1c0.1-0.5,0.1-1,0.2-1.5
		c0.2-1.8,0.4-3.6,0.9-5.3c0.9-3.3,1.9-3.4,4.6-3.9l0.8-0.1c0,0,0,12.4,0,14.2c0,0.3,0.1,0.6,0.3,0.8c0.1,0.1,0.4,0.2,0.5,0.2
		c0.6,0,0.8-0.5,0.8-1c0-0.2,0-0.4,0-0.6c0,0,0-9.6,0-13.1c0-0.3,0.2-1,0.6-1.1c1.1-0.3,2.2-0.6,3.4-0.9l1.6-0.4c0,0,0,8.7,0,11.1
		c0,0.9,0.3,1.2,1.1,1.2l26.8,0c1.1,0,1.3-0.2,1.3-1.3c0-2.4,0-11,0-11l1.7,0.4c1,0.3,2,0.5,3,0.7c0.6,0.1,0.9,0.5,0.9,1.2
		c0,1.6,0,11.1,0,12.5c0,0.5,0.3,0.9,0.8,0.9c0,0,0,0,0,0c0.5,0,0.8-0.4,0.8-0.9c0-0.1,0-0.2,0-0.2l0-0.1l0-12.5l0.4,0
		c2.2,0.1,3.6,1.2,4.1,3.3c0.4,1.5,0.7,3.1,0.9,4.7c0.1,1.4,0.2,2.8,0.3,4.1c0,0.6,0,1.2,0.1,1.8c0,0.5,0.2,0.7,0.7,0.8
		c0.5,0.1,0.8-0.2,0.9-0.7c0-0.2,0-0.4,0-0.7C65.9,66.1,65.9,65.5,65.9,65z M49.8,61.9H23.9v-11l2.9-0.7l0.3,0.7
		c0.1,0.3,0.2,0.5,0.3,0.8c0.9,2,2,3.5,3.3,4.6c2,1.7,4.4,2.4,6.7,2.2c2.5-0.3,4.8-1.6,6.4-3.8c0.7-0.9,1.2-2,1.8-3l0.4-0.7
		c0.2-0.4,0.5-0.8,1.3-0.6c0.5,0.1,1,0.3,1.5,0.4l0.9,0.3V61.9z"/>
	<path class="st0" d="M21.2,25.4c1,0.6,2.1,1.1,3.2,1.5c2.8,1,5.9,1.5,9.9,1.7c5.4,0.3,10.3-0.3,14.7-1.7c1.3-0.4,3.1-1.1,4.5-2.3
		c0.7-0.7,1.2-1.3,1.2-2.1c0-1.3-0.1-2.7-0.3-4.2c0-0.3-0.1-0.5-0.3-0.6c-0.2-0.1-0.4-0.2-0.6-0.1c-1.1,0.1-1.4-0.5-1.6-1.2
		c-1.3-4.2-3.8-7-7.3-8.6c-1.1-0.5-1.5-1.1-1.4-2.3c0-0.4,0-0.7-0.2-0.8c-0.2-0.2-0.5-0.3-1-0.3c-1.2,0-2.3,0-3.5,0l-1.8,0v0l-4.3,0
		c0,0,0,0,0,0c-1.4,0-1.5,0.1-1.5,1.5c0,0.4-0.1,0.8-0.7,1.1c-4.5,1.7-7.5,5-8.9,9.9c-0.1,0.4-0.5,0.7-0.8,0.7
		c-0.5,0.1-0.8,0.4-0.8,0.8c-0.1,0.6-0.2,1.1-0.4,1.7l0,0.2C18.4,22.7,19,24.2,21.2,25.4z M20.4,20.9c0.1-0.3,0.1-0.6,0.2-1l0.2-0.8
		l0.3,0c0,0,0,0,0,0c0.7,0,1-0.3,1.2-1.2c1-4.3,3.4-7.4,7.1-9.1c0.2-0.1,0.3-0.1,0.5-0.2l0.7-0.3L31,9.7c0.1,0.7,0.3,1.4,0.4,2.1
		c0.1,0.5,0.2,1,0.3,1.5l0.2,1.3c0.1,0.3,0.2,0.6,0.4,0.7c0.2,0.1,0.3,0.1,0.5,0.1c0.5-0.1,0.7-0.5,0.6-1.1l-0.3-1.6
		c-0.3-1.6-0.6-3.3-0.8-4.9c-0.1-0.3,0-0.7,0-1c0-0.2,0-0.3,0-0.5V6h9.3l-0.2,1.4c-0.1,0.7-0.2,1.5-0.3,2.2
		c-0.2,1.2-0.4,2.5-0.6,3.7l-0.2,1.1c-0.1,0.5,0,1.1,0.6,1.2c0.2,0,0.4,0,0.5-0.1c0.2-0.2,0.4-0.4,0.4-0.8l0.8-4.7
		c0-0.2,0.1-0.3,0.1-0.5l0.2-0.7l0.4,0.2c2,0.7,3.6,2,4.9,3.8c1.1,1.4,1.8,3.1,2.3,5.1c0.3,1.3,0.3,1.3,1.6,1.4c0.1,0,0.1,0,0.3,0
		l0.5,0.1l0.1,1.1c0,0.6,0.1,1.2,0.1,1.8c0,0.9-0.5,1.7-1.5,2.1l-0.5,0.2c-1.2,0.6-2.5,1.1-3.8,1.4c-3.7,0.8-7.3,1.2-10.9,1.2
		c-3.9,0-7.6-0.5-11.3-1.4c-0.9-0.2-1.8-0.6-2.9-1.2C20.6,23.7,20.1,22.7,20.4,20.9z"/>
	<path class="st0" d="M47.4,29.3c0,0.1,0,0.2-0.1,0.3l0,0.1c-1,4.7-2.6,8.2-5.1,11.1c-2.6,3.1-6.4,3.5-9.6,1.1c-1.7-1.2-3-2.8-4-4.5
		c-1.2-2.2-2.1-4.7-2.9-7.8c-0.1-0.4-0.3-0.7-0.5-0.8c-0.1-0.1-0.3-0.1-0.5-0.1c-0.2,0-0.4,0.1-0.5,0.4c-0.1,0.2-0.1,0.5,0,0.8
		l0.2,0.5c0.7,2.1,1.4,4.2,2.2,6.3c0.7,1.8,1.8,3.4,3.5,5.1c2.3,2.2,4.5,3.2,7,3.2c0,0,0,0,0,0c1.9,0,3.6-0.6,5-1.9
		c3.5-3.1,5.7-7.3,6.9-13.6c0.1-0.5-0.2-0.8-0.6-0.8C47.9,28.6,47.5,28.8,47.4,29.3z"/>
	<path class="st0" d="M51.5,66.3c0-0.7-0.7-0.8-1.1-0.8c-2.2,0-9,0-10.2,0c-0.4,0-0.7,0.1-0.9,0.3C39.1,66,39,66.1,39,66.3
		c0,0.7,0.8,0.8,1.1,0.8c1.2,0,9,0,10.2,0c0.4,0,0.7-0.1,0.9-0.3C51.4,66.7,51.5,66.5,51.5,66.3z"/>
	<path class="st0" d="M25.4,22.4c0.1,0.2,0.4,0.4,0.8,0.5c2.2,0.3,4.4,0.6,6.6,0.9l2.5,0.1c4.4,0,8-0.3,11.2-1.2
		c1-0.3,1-0.7,0.9-1.1c0-0.2-0.2-0.7-1.2-0.5c-0.4,0.1-0.8,0.2-1.3,0.2c-1.4,0.3-2.8,0.5-4.2,0.7c-5.4,0.5-10.1,0.2-14.3-0.8
		c-0.1,0-0.2,0-0.3,0c-0.4,0-0.6,0.3-0.7,0.5C25.3,21.9,25.3,22.2,25.4,22.4z"/>
</g>
</svg>
