<?xml version="1.0" encoding="utf-8"?>
<!-- Generator: Adobe Illustrator 19.1.0, SVG Export Plug-In . SVG Version: 6.00 Build 0)  -->
<svg version="1.1" id="Capa_3" xmlns="http://www.w3.org/2000/svg" xmlns:xlink="http://www.w3.org/1999/xlink" x="0px" y="0px"
	 viewBox="0 0 72.9 72.6" style="enable-background:new 0 0 72.9 72.6;" xml:space="preserve">
<style type="text/css">
	.st0{fill:#FFFFFF;}
</style>
<g>
	<path class="st0" d="M17.1,30.3c-0.1-0.1-0.5-0.1-0.7-0.1c0,0,0,0,0,0c-0.7,0-0.8,0.1-0.8,0.8l0,15c0,0.8,0.1,0.8,0.8,0.8
		c0.3,0,0.7,0,0.8-0.1c0.1-0.1,0.1-0.4,0.1-0.7c0-5,0-10.1,0-15.1C17.2,30.8,17.2,30.4,17.1,30.3z"/>
	<g>
		<path class="st0" d="M67.1,64.8c0.1-0.1,0.1-0.5,0.1-0.7c0-0.8-0.1-0.9-0.8-0.9c-0.5,0-0.9,0-1.4,0l-1,0l0-41.7c0-3.2,0-6.5,0-9.7
			c0-2.3-1.9-4.1-4.2-4.1l-1.6,0l-6.6,0c-2.8,0-4.5,1.8-4.6,4.6c0,1.3,0,2.7,0,4v5.1l-0.3,0.1c-1.7,0.3-1.7,1.4-1.7,2.8
			c0,0.3,0,0.6,0,0.8l0,0.3l-6.8,0c-1.9,0-3.7,0-5.6,0c-5.8,0-11.5,0-17.3,0c-0.7,0-1.3,0.1-1.9,0.2c-2.8,0.7-4.6,3.1-4.6,6
			c0,7.2,0,14.5,0,21.7V63l-0.3,0.1c-0.1,0-0.1,0.1-0.2,0.1l-2.1,0c-0.7,0-0.8,0.1-0.8,0.8c0,0.3,0,0.7,0.1,0.8
			c0.1,0.1,0.5,0.1,0.8,0.1l59.9,0C66.8,64.9,67,64.9,67.1,64.8z M10.8,43.9c0-4,0-8,0-12c0-2.9,1.9-4.8,4.7-4.8
			c8.1,0,16.2,0,24.3,0l4.3,0c0.1,0,0.3,0,0.4,0l0.6,0v2.2c0,1.5,0.3,1.8,1.7,2.3l0.2,0.1l0,0.4c0,0.2,0,0.3,0,0.5v3.6
			c0,3,0,5.9,0,8.9c0,0.5-0.1,1-0.8,1.2c-0.7,0.2-1.1,0.8-1.1,1.6c0,0.4,0,0.9,0,1.3l0,1H10.8L10.8,43.9z M47.1,62.3
			c0,0.1,0,0.2,0,0.3l0,0.5h-4.9l0-0.6c0-0.2,0-0.4,0-0.5l0-5.8c0-1,0-1-0.8-1c0,0,0,0,0,0c-0.4,0-0.7,0-0.7,0.1
			c-0.1,0.1-0.1,0.5-0.1,0.9v6.9H17.2v-0.4c0-0.7,0-1.3,0-2c0-1.6,0-3.1,0-4.6c0-0.5-0.1-0.8-0.2-0.9c-0.2-0.2-0.7-0.1-1.3-0.1
			c-0.1,0-0.3,0-0.3,0.7c0,1.5,0,2.9,0,4.4v2.8h-4.7V52h34.4v2.2c0,1.3,0.2,1.6,1.4,2.1c0.3,0.1,0.5,0.5,0.5,0.8c0,1.5,0,2.9,0,4.4
			L47.1,62.3z M62.4,22.6c0,1.4,0,2.7,0,4.1l0,36.5H48.8v-8.5h-1.9v-6.7h1.8v-18h-1.8v-6.7h1.9l0-10.7c0-2.1,1-3.1,3.1-3.1
			c0,0,0,0,0,0c0.7,0,1.5,0,2.2,0c1.7,0,3.4,0,5.1,0c0.9,0,1.7,0.2,2.2,0.8c0.6,0.6,0.9,1.4,0.9,2.4C62.3,15.8,62.4,19.3,62.4,22.6z
			"/>
		<path class="st0" d="M15.7,21.1c0,0.2,0,0.5,0.1,0.5c0.2,0.2,0.5,0.3,0.9,0.2c0.4-0.1,0.6-0.3,0.7-0.6c0.5-1.3,1.4-2.1,2.7-2.4
			c0.7-0.2,1.4-0.2,2.3-0.2c2.7,0,5.4,0,8.2,0c2.2,0,4.4,0,6.6,0c0,0,0,0,0,0c1.9,0,2.6,0.6,3.1,2.5c0.1,0.7,0.2,0.7,0.9,0.7
			c0.5,0,0.7-0.1,0.8-0.2c0-0.1,0.1-0.2,0.1-0.3c-0.2-2.7-1.9-4.5-4.4-4.5c-1,0-2.1,0-3.1,0c-2.1,0-4.1,0-6.2,0l-1.7,0
			c-1.9,0-3.9,0-5.8,0.1C18.3,17.1,16.3,18.8,15.7,21.1z"/>
		<path class="st0" d="M42.1,46.1c0-1.8,0-13.3,0-15.2c0-0.1,0-0.5-0.1-0.6c-0.1-0.1-0.5-0.1-0.7-0.1c0,0,0,0-0.1,0
			c-0.7,0-0.8,0.1-0.8,0.8c0,5.1,0,10.1,0,15.2c0,0.7,0.1,0.8,0.9,0.8c0,0,0,0,0,0C42,46.9,42.1,46.8,42.1,46.1z"/>
	</g>
</g>
</svg>
