<?xml version="1.0" encoding="utf-8"?>
<!-- Generator: Adobe Illustrator 19.1.0, SVG Export Plug-In . SVG Version: 6.00 Build 0)  -->
<svg version="1.1" id="Capa_1" xmlns="http://www.w3.org/2000/svg" xmlns:xlink="http://www.w3.org/1999/xlink" x="0px" y="0px"
	 viewBox="0 0 72.9 72.6" style="enable-background:new 0 0 72.9 72.6;" xml:space="preserve">
<style type="text/css">
	.st0{fill:#FFFFFF;}
</style>
<g>
	<path class="st0" d="M49,19.8c0-0.4-0.4-0.8-0.8-0.8H24.7c-0.4,0-0.8,0.4-0.8,0.8s0.4,0.8,0.8,0.8h23.4C48.6,20.6,49,20.2,49,19.8z
		"/>
	<path class="st0" d="M1.3,60.1c2,0,2.9,0.7,4,1.5c1.1,0.9,2.5,1.9,5,1.9c2.5,0,3.8-1,5-1.9c1.1-0.8,2-1.5,4-1.5
		c1.9,0,2.8,0.7,3.8,1.5c1.1,0.9,2.4,1.9,4.8,1.9s3.7-1,4.8-1.9c1-0.8,1.9-1.5,3.8-1.5c1.9,0,2.7,0.7,3.8,1.5
		c1.1,0.9,2.4,1.9,4.8,1.9s3.7-1,4.8-1.9c1-0.8,1.9-1.5,3.8-1.5c2,0,3,0.7,4.1,1.5c1.2,0.9,2.5,1.9,5,1.9c2.5,0,3.9-1,5-1.9
		c1.1-0.8,2.1-1.5,4.1-1.5c0.4,0,0.8-0.4,0.8-0.8s-0.4-0.8-0.8-0.8c-2.5,0-3.9,1-5,1.9c-1.1,0.8-2.1,1.5-4.1,1.5s-3-0.7-4.1-1.5
		c-0.6-0.4-1.2-0.9-2-1.3c0,0,0,0,0,0l5.4-24.2c0.1-0.4-0.1-0.8-0.5-0.9l-7.6-2.8V13.5c0-0.4-0.4-0.8-0.8-0.8h-7.5V7.6
		c0-0.4-0.4-0.8-0.8-0.8h-7.4V1.6c0-0.4-0.4-0.8-0.8-0.8s-0.8,0.4-0.8,0.8v5.2h-7.4c-0.4,0-0.8,0.4-0.8,0.8v5.1H20
		c-0.4,0-0.8,0.4-0.8,0.8v17.7l-7.6,2.8c-0.4,0.1-0.6,0.5-0.5,0.9L16.5,59c-0.9,0.4-1.6,0.9-2.2,1.4c-1.1,0.8-2,1.5-4,1.5
		c-2,0-2.9-0.7-4-1.5c-1.1-0.9-2.5-1.9-5-1.9c-0.4,0-0.8,0.4-0.8,0.8S0.9,60.1,1.3,60.1z M29.1,8.4h14.7v4.3H29.1V8.4z M20.8,14.3
		h31.3v16.3L36.7,25c-0.2-0.1-0.4-0.1-0.5,0l-15.4,5.6V14.3z M12.8,35.1l23.6-8.6l23.6,8.6l-5.2,23.5c-0.4-0.1-0.9-0.1-1.4-0.1
		c-2.4,0-3.7,1-4.8,1.9c-1,0.8-1.9,1.5-3.8,1.5s-2.7-0.7-3.8-1.5c-1-0.8-2.2-1.7-4.3-1.9V32.9l18,6.6c0.4,0.1,0.9-0.1,1-0.5
		c0.2-0.4-0.1-0.9-0.5-1l-19.1-7c-0.2-0.1-0.5-0.1-0.7,0.1c-0.2,0.1-0.3,0.4-0.3,0.7v26.8c-1.7,0.3-2.7,1.1-3.7,1.8
		c-1,0.8-1.9,1.5-3.8,1.5S25,61.2,24,60.3c-1.1-0.9-2.4-1.9-4.8-1.9c-0.4,0-0.8,0-1.2,0.1L12.8,35.1z"/>
	<path class="st0" d="M71.6,66.8c-2.5,0-3.9,1-5,1.9c-1.1,0.8-2.1,1.5-4.1,1.5s-3-0.7-4.1-1.5c-1.2-0.9-2.5-1.9-5-1.9
		c-2.4,0-3.7,1-4.8,1.9c-1,0.8-1.9,1.5-3.8,1.5s-2.7-0.7-3.8-1.5c-1.1-0.9-2.4-1.9-4.8-1.9c-2.4,0-3.7,1-4.8,1.9
		c-1,0.8-1.9,1.5-3.8,1.5S25,69.5,24,68.7c-1.1-0.9-2.4-1.9-4.8-1.9c-2.5,0-3.8,1-5,1.9c-1.1,0.8-2,1.5-4,1.5c-2,0-2.9-0.7-4-1.5
		c-1.1-0.9-2.5-1.9-5-1.9c-0.4,0-0.8,0.4-0.8,0.8s0.4,0.8,0.8,0.8c2,0,2.9,0.7,4,1.5c1.1,0.9,2.5,1.9,5,1.9c2.5,0,3.8-1,5-1.9
		c1.1-0.8,2-1.5,4-1.5c1.9,0,2.8,0.7,3.8,1.5c1.1,0.9,2.4,1.9,4.8,1.9s3.7-1,4.8-1.9c1-0.8,1.9-1.5,3.8-1.5c1.9,0,2.7,0.7,3.8,1.5
		c1.1,0.9,2.4,1.9,4.8,1.9s3.7-1,4.8-1.9c1-0.8,1.9-1.5,3.8-1.5c2,0,3,0.7,4.1,1.5c1.2,0.9,2.5,1.9,5,1.9c2.5,0,3.9-1,5-1.9
		c1.1-0.8,2.1-1.5,4.1-1.5c0.4,0,0.8-0.4,0.8-0.8S72,66.8,71.6,66.8z"/>
</g>
</svg>
