<?xml version="1.0" encoding="utf-8"?>
<!-- Generator: Adobe Illustrator 19.1.0, SVG Export Plug-In . SVG Version: 6.00 Build 0)  -->
<svg version="1.1" id="Capa_2" xmlns="http://www.w3.org/2000/svg" xmlns:xlink="http://www.w3.org/1999/xlink" x="0px" y="0px"
	 viewBox="0 0 286 77" style="enable-background:new 0 0 286 77;" xml:space="preserve">
<style type="text/css">
	.st0{fill:#004258;}
	.st1{fill:#DC9F16;}
</style>
<g>
	<path class="st0" d="M135.4,18.7v4.8h-1V11.8h3.4c1.1,0,1.8,0.4,2.4,1c0.6,0.6,0.8,1.4,0.8,2.5s-0.2,1.9-0.8,2.5
		c-0.6,0.6-1.4,0.8-2.5,0.8h-2.3V18.7z M135.4,17.9h2.5c0.7,0,1.3-0.2,1.8-0.7c0.5-0.5,0.6-1.1,0.6-1.9s-0.2-1.4-0.6-1.9
		c-0.5-0.5-1.1-0.7-1.8-0.7h-2.5V17.9z"/>
	<path class="st0" d="M150.2,17.9h-4.5v4.8h5.3v0.8h-6.1V11.8h6v0.8h-5.1V17h4.5V17.9z"/>
	<path class="st0" d="M160.3,20.6c0-0.6-0.2-1.2-0.6-1.6c-0.4-0.4-1.1-0.7-2-1.1c-1.1-0.4-1.8-0.7-2.3-1.2c-0.6-0.6-1-1.3-1-2.2
		c0-0.8,0.4-1.7,1-2.2c0.6-0.5,1.4-0.8,2.4-0.8c1,0,1.8,0.4,2.4,1c0.6,0.6,1,1.6,1,2.5h-1c0-0.8-0.2-1.4-0.7-1.9
		c-0.5-0.5-1.1-0.7-1.8-0.7s-1.3,0.2-1.8,0.6c-0.5,0.4-0.6,1-0.6,1.6c0,0.6,0.2,1.1,0.6,1.4c0.4,0.4,1.1,0.7,1.9,1
		c0.8,0.2,1.6,0.6,2,1c0.5,0.4,0.8,0.7,1,1.1c0.2,0.5,0.4,1,0.4,1.6c0,1-0.4,1.7-1,2.3c-0.6,0.6-1.4,0.8-2.5,0.8
		c-0.7,0-1.3-0.1-1.9-0.5c-0.6-0.2-1-0.7-1.3-1.2s-0.5-1.2-0.5-1.9h1c0,0.8,0.2,1.4,0.7,1.9c0.5,0.5,1.2,0.7,2,0.7
		c0.7,0,1.3-0.2,1.8-0.6C159.9,21.8,160.3,21.3,160.3,20.6z"/>
	<path class="st0" d="M172.3,18.9c0,1.1-0.1,1.9-0.5,2.6s-0.7,1.2-1.3,1.6l1.8,1.8l-0.6,0.6l-2-2c-0.4,0.1-0.7,0.1-1.1,0.1
		c-1.2,0-2.2-0.4-2.8-1.2c-0.7-0.8-1-2-1-3.5v-2.6c0-1.6,0.4-2.6,1-3.5c0.7-0.8,1.6-1.2,2.8-1.2c1.2,0,2.2,0.4,2.8,1.2
		c0.7,0.8,1,2,1,3.6C172.3,16.4,172.3,18.9,172.3,18.9z M171.4,16.4c0-1.3-0.2-2.3-0.7-2.9c-0.5-0.6-1.2-1-2.2-1c-0.8,0-1.6,0.4-2,1
		s-0.7,1.6-0.7,2.9v2.6c0,1.3,0.2,2.3,0.7,2.9c0.5,0.6,1.2,1,2.2,1s1.7-0.4,2.2-1c0.5-0.6,0.7-1.6,0.7-2.9v-2.6H171.4z"/>
	<path class="st0" d="M183.1,11.8V20c0,1.1-0.4,2-1,2.6c-0.6,0.6-1.4,1.1-2.6,1.1c-1.1,0-2-0.4-2.6-1c-0.6-0.6-1-1.6-1-2.6v-8.3h1
		v8.3c0,1.8,0.8,2.8,2.5,2.8c1.7,0,2.5-1,2.5-2.8v-8.4H183.1z"/>
	<path class="st0" d="M192.4,17.9h-4.5v4.8h5.3v0.8h-6.1V11.8h6.1v0.8h-5.3V17h4.5V17.9z"/>
	<path class="st0" d="M200.6,18.6h-2.8v4.9h-1V11.8h3.2c1.1,0,1.9,0.4,2.5,1c0.6,0.6,0.8,1.4,0.8,2.5c0,0.7-0.2,1.4-0.6,2
		c-0.4,0.6-0.8,1-1.4,1.2l2.4,5v0.1h-1L200.6,18.6z M197.8,17.7h2.4c0.7,0,1.2-0.2,1.7-0.7c0.4-0.5,0.6-1.1,0.6-1.8
		c0-0.8-0.2-1.4-0.6-1.9c-0.5-0.5-1.1-0.7-1.8-0.7h-2.3V17.7z"/>
	<path class="st0" d="M212.8,20.3h-4.4l-1,3.2h-1l3.7-11.7h0.8l3.7,11.7h-1L212.8,20.3z M208.6,19.4h3.8l-1.9-6.3L208.6,19.4z"/>
	<path class="st0" d="M135.4,18.7v4.8h-1V11.8h3.4c1.1,0,1.8,0.4,2.4,1c0.6,0.6,0.8,1.4,0.8,2.5s-0.2,1.9-0.8,2.5
		c-0.6,0.6-1.4,0.8-2.5,0.8h-2.3V18.7z M135.4,17.9h2.5c0.7,0,1.3-0.2,1.8-0.7c0.5-0.5,0.6-1.1,0.6-1.9s-0.2-1.4-0.6-1.9
		c-0.5-0.5-1.1-0.7-1.8-0.7h-2.5V17.9z"/>
	<path class="st0" d="M150.2,17.9h-4.5v4.8h5.3v0.8h-6.1V11.8h6v0.8h-5.1V17h4.5V17.9z"/>
	<path class="st0" d="M160.3,20.6c0-0.6-0.2-1.2-0.6-1.6c-0.4-0.4-1.1-0.7-2-1.1c-1.1-0.4-1.8-0.7-2.3-1.2c-0.6-0.6-1-1.3-1-2.2
		c0-0.8,0.4-1.7,1-2.2c0.6-0.5,1.4-0.8,2.4-0.8c1,0,1.8,0.4,2.4,1c0.6,0.6,1,1.6,1,2.5h-1c0-0.8-0.2-1.4-0.7-1.9
		c-0.5-0.5-1.1-0.7-1.8-0.7s-1.3,0.2-1.8,0.6c-0.5,0.4-0.6,1-0.6,1.6c0,0.6,0.2,1.1,0.6,1.4c0.4,0.4,1.1,0.7,1.9,1
		c0.8,0.2,1.6,0.6,2,1c0.5,0.4,0.8,0.7,1,1.1c0.2,0.5,0.4,1,0.4,1.6c0,1-0.4,1.7-1,2.3c-0.6,0.6-1.4,0.8-2.5,0.8
		c-0.7,0-1.3-0.1-1.9-0.5c-0.6-0.2-1-0.7-1.3-1.2s-0.5-1.2-0.5-1.9h1c0,0.8,0.2,1.4,0.7,1.9c0.5,0.5,1.2,0.7,2,0.7
		c0.7,0,1.3-0.2,1.8-0.6C159.9,21.8,160.3,21.3,160.3,20.6z"/>
	<path class="st0" d="M172.3,18.9c0,1.1-0.1,1.9-0.5,2.6s-0.7,1.2-1.3,1.6l1.8,1.8l-0.6,0.6l-2-2c-0.4,0.1-0.7,0.1-1.1,0.1
		c-1.2,0-2.2-0.4-2.8-1.2c-0.7-0.8-1-2-1-3.5v-2.6c0-1.6,0.4-2.6,1-3.5c0.7-0.8,1.6-1.2,2.8-1.2c1.2,0,2.2,0.4,2.8,1.2
		c0.7,0.8,1,2,1,3.6C172.3,16.4,172.3,18.9,172.3,18.9z M171.4,16.4c0-1.3-0.2-2.3-0.7-2.9c-0.5-0.6-1.2-1-2.2-1c-0.8,0-1.6,0.4-2,1
		s-0.7,1.6-0.7,2.9v2.6c0,1.3,0.2,2.3,0.7,2.9c0.5,0.6,1.2,1,2.2,1s1.7-0.4,2.2-1c0.5-0.6,0.7-1.6,0.7-2.9v-2.6H171.4z"/>
	<path class="st0" d="M183.1,11.8V20c0,1.1-0.4,2-1,2.6c-0.6,0.6-1.4,1.1-2.6,1.1c-1.1,0-2-0.4-2.6-1c-0.6-0.6-1-1.6-1-2.6v-8.3h1
		v8.3c0,1.8,0.8,2.8,2.5,2.8c1.7,0,2.5-1,2.5-2.8v-8.4H183.1z"/>
	<path class="st0" d="M192.4,17.9h-4.5v4.8h5.3v0.8h-6.1V11.8h6.1v0.8h-5.3V17h4.5V17.9z"/>
	<path class="st0" d="M200.6,18.6h-2.8v4.9h-1V11.8h3.2c1.1,0,1.9,0.4,2.5,1c0.6,0.6,0.8,1.4,0.8,2.5c0,0.7-0.2,1.4-0.6,2
		c-0.4,0.6-0.8,1-1.4,1.2l2.4,5v0.1h-1L200.6,18.6z M197.8,17.7h2.4c0.7,0,1.2-0.2,1.7-0.7c0.4-0.5,0.6-1.1,0.6-1.8
		c0-0.8-0.2-1.4-0.6-1.9c-0.5-0.5-1.1-0.7-1.8-0.7h-2.3V17.7z"/>
	<path class="st0" d="M212.8,20.3h-4.4l-1,3.2h-1l3.7-11.7h0.8l3.7,11.7h-1L212.8,20.3z M208.6,19.4h3.8l-1.9-6.3L208.6,19.4z"/>
</g>
<g>
	<path class="st0" d="M149.9,52.5V57c0,5.3-2.7,8.3-7.7,8.3c-5,0-7.7-3-7.7-8.3V39.7c0-5.3,2.7-8.3,7.7-8.3c5,0,7.7,3,7.7,8.3V43
		H145v-3.5c0-2.3-1.1-3.3-2.7-3.3s-2.7,0.9-2.7,3.3v17.9c0,2.3,1.1,3.3,2.7,3.3s2.7-0.8,2.7-3.3v-4.7h4.9V52.5z"/>
	<path class="st0" d="M158.3,45.7h7.1v4.7h-7.1v9.7h9v4.7H153v-33h14.2v4.7h-9v9.3H158.3z"/>
	<path class="st0" d="M175.2,40.9v24h-4.7V31.8h6.6l5.4,19.9V31.8h4.7v33.1h-5.4L175.2,40.9z"/>
	<path class="st0" d="M189.2,31.8h16.2v4.7h-5.5v28.5h-5.3V36.5h-5.4V31.8z"/>
	<path class="st0" d="M207.6,31.8h5.3v33.1h-5.3C207.6,64.9,207.6,31.8,207.6,31.8z"/>
	<path class="st0" d="M220.7,40.9v24h-4.7V31.8h6.6l5.4,19.9V31.8h4.7v33.1h-5.4L220.7,40.9z"/>
	<path class="st0" d="M241,45.7h7.1v4.7H241v9.7h9v4.7h-14.3v-33h14.2v4.7h-9v9.3H241z"/>
	<path class="st0" d="M253.2,31.8h5.3v28.5h7v4.7h-12.3V31.8z"/>
	<path class="st0" d="M286,64.9h-5.3l-0.9-6h-6.4l-0.9,6h-4.7l5.3-33.1h7.6L286,64.9z M274.2,54.4h5l-2.5-16.7L274.2,54.4z"/>
</g>
<g>
	<g>
		<polygon class="st1" points="83.4,49.5 115,25.9 83.4,2.3 51.3,24.9 49.7,23.7 83.5,0 118.1,26.1 83.5,51.8 22,9.5 22,43.1 
			44.2,27.5 46,28.6 20,46.8 20,5.9 		"/>
		<circle class="st1" cx="95.5" cy="25.9" r="2.7"/>
		<g>
			<polygon class="st0" points="65,24.9 65,17.7 53.2,26.1 65,34.1 65,27.1 63.4,25.9 			"/>
		</g>
	</g>
	<g>
		<polygon class="st0" points="34.7,74.6 3.1,51.1 34.7,27.5 66.8,49.9 68.5,48.8 34.7,25 0,51.1 34.7,76.9 96.2,34.7 96.2,68.2 
			73.9,52.6 72.1,53.8 98.1,71.9 98.1,31.1 		"/>
		<circle class="st0" cx="22.7" cy="51" r="2.7"/>
		<g>
			<polygon class="st1" points="65,51.1 53.2,42.8 53.2,49.9 54.7,51.1 53.2,52.2 53.2,59.1 			"/>
		</g>
	</g>
	<g>
		<polygon class="st1" points="83.4,49.5 115,25.9 118.1,26.1 83.5,51.8 22,9.5 20,5.9 		"/>
	</g>
</g>
</svg>
