<?xml version="1.0" encoding="utf-8"?>
<!-- Generator: Adobe Illustrator 19.1.0, SVG Export Plug-In . SVG Version: 6.00 Build 0)  -->
<svg version="1.1" id="Capa_1" xmlns="http://www.w3.org/2000/svg" xmlns:xlink="http://www.w3.org/1999/xlink" x="0px" y="0px"
	 viewBox="0 0 130.1 130.1" style="enable-background:new 0 0 130.1 130.1;" xml:space="preserve">
<style type="text/css">
	.st0{fill:#004258;}
	.st1{fill:#DC9F16;}
</style>
<path class="st0" d="M32.1,88.7v4h-0.8v-9.8h2.8c0.9,0,1.5,0.3,2,0.8c0.5,0.5,0.7,1.2,0.7,2.1c0,0.9-0.2,1.6-0.7,2.1
	c-0.5,0.5-1.2,0.7-2.1,0.7H32.1z M32.1,88h2.1c0.6,0,1.1-0.2,1.5-0.6c0.4-0.4,0.5-0.9,0.5-1.6s-0.2-1.2-0.5-1.6
	c-0.4-0.4-0.9-0.6-1.5-0.6h-2.1V88z"/>
<path class="st0" d="M44.5,88h-3.8v4h4.4v0.7h-5.1v-9.8H45v0.7h-4.3v3.7h3.8V88z"/>
<path class="st0" d="M52.9,90.3c0-0.5-0.2-1-0.5-1.3c-0.3-0.3-0.9-0.6-1.7-0.9c-0.9-0.3-1.5-0.6-1.9-1c-0.5-0.5-0.8-1.1-0.8-1.8
	c0-0.7,0.3-1.4,0.8-1.8s1.2-0.7,2-0.7c0.8,0,1.5,0.3,2,0.8c0.5,0.5,0.8,1.3,0.8,2.1h-0.8c0-0.7-0.2-1.2-0.6-1.6
	c-0.4-0.4-0.9-0.6-1.5-0.6c-0.6,0-1.1,0.2-1.5,0.5c-0.4,0.3-0.5,0.8-0.5,1.3c0,0.5,0.2,0.9,0.5,1.2c0.3,0.3,0.9,0.6,1.6,0.8
	c0.7,0.2,1.3,0.5,1.7,0.8c0.4,0.3,0.7,0.6,0.8,0.9c0.2,0.4,0.3,0.8,0.3,1.3c0,0.8-0.3,1.4-0.8,1.9c-0.5,0.5-1.2,0.7-2.1,0.7
	c-0.6,0-1.1-0.1-1.6-0.4c-0.5-0.2-0.8-0.6-1.1-1c-0.3-0.4-0.4-1-0.4-1.6h0.8c0,0.7,0.2,1.2,0.6,1.6c0.4,0.4,1,0.6,1.7,0.6
	c0.6,0,1.1-0.2,1.5-0.5S52.9,90.9,52.9,90.3z"/>
<path class="st0" d="M63,88.9c0,0.9-0.1,1.6-0.4,2.2c-0.3,0.6-0.6,1-1.1,1.3l1.5,1.5l-0.5,0.5l-1.7-1.7c-0.3,0.1-0.6,0.1-0.9,0.1
	c-1,0-1.8-0.3-2.3-1c-0.6-0.7-0.8-1.7-0.8-2.9v-2.2c0-1.3,0.3-2.2,0.8-2.9c0.6-0.7,1.3-1,2.3-1c1,0,1.8,0.3,2.3,1
	c0.6,0.7,0.8,1.7,0.8,3V88.9z M62.2,86.8c0-1.1-0.2-1.9-0.6-2.4c-0.4-0.5-1-0.8-1.8-0.8c-0.7,0-1.3,0.3-1.7,0.8
	c-0.4,0.5-0.6,1.3-0.6,2.4v2.2c0,1.1,0.2,1.9,0.6,2.4c0.4,0.5,1,0.8,1.8,0.8c0.8,0,1.4-0.3,1.8-0.8s0.6-1.3,0.6-2.4V86.8z"/>
<path class="st0" d="M72,82.9v6.9c0,0.9-0.3,1.7-0.8,2.2S70,92.9,69,92.9c-0.9,0-1.7-0.3-2.2-0.8c-0.5-0.5-0.8-1.3-0.8-2.2v-6.9h0.8
	v6.9c0,1.5,0.7,2.3,2.1,2.3c1.4,0,2.1-0.8,2.1-2.3v-7H72z"/>
<path class="st0" d="M79.8,88H76v4h4.4v0.7h-5.1v-9.8h5.1v0.7H76v3.7h3.8V88z"/>
<path class="st0" d="M86.6,88.6h-2.3v4.1h-0.8v-9.8h2.7c0.9,0,1.6,0.3,2.1,0.8c0.5,0.5,0.7,1.2,0.7,2.1c0,0.6-0.2,1.2-0.5,1.7
	c-0.3,0.5-0.7,0.8-1.2,1l2,4.2v0.1h-0.8L86.6,88.6z M84.3,87.9h2c0.6,0,1-0.2,1.4-0.6c0.3-0.4,0.5-0.9,0.5-1.5
	c0-0.7-0.2-1.2-0.5-1.6c-0.4-0.4-0.9-0.6-1.5-0.6h-1.9V87.9z"/>
<path class="st0" d="M96.8,90h-3.7l-0.8,2.7h-0.8l3.1-9.8h0.7l3.1,9.8h-0.8L96.8,90z M93.3,89.3h3.2L94.9,84L93.3,89.3z"/>
<path class="st0" d="M32.1,88.7v4h-0.8v-9.8h2.8c0.9,0,1.5,0.3,2,0.8c0.5,0.5,0.7,1.2,0.7,2.1c0,0.9-0.2,1.6-0.7,2.1
	c-0.5,0.5-1.2,0.7-2.1,0.7H32.1z M32.1,88h2.1c0.6,0,1.1-0.2,1.5-0.6c0.4-0.4,0.5-0.9,0.5-1.6s-0.2-1.2-0.5-1.6
	c-0.4-0.4-0.9-0.6-1.5-0.6h-2.1V88z"/>
<path class="st0" d="M44.5,88h-3.8v4h4.4v0.7h-5.1v-9.8H45v0.7h-4.3v3.7h3.8V88z"/>
<path class="st0" d="M52.9,90.3c0-0.5-0.2-1-0.5-1.3c-0.3-0.3-0.9-0.6-1.7-0.9c-0.9-0.3-1.5-0.6-1.9-1c-0.5-0.5-0.8-1.1-0.8-1.8
	c0-0.7,0.3-1.4,0.8-1.8s1.2-0.7,2-0.7c0.8,0,1.5,0.3,2,0.8c0.5,0.5,0.8,1.3,0.8,2.1h-0.8c0-0.7-0.2-1.2-0.6-1.6
	c-0.4-0.4-0.9-0.6-1.5-0.6c-0.6,0-1.1,0.2-1.5,0.5c-0.4,0.3-0.5,0.8-0.5,1.3c0,0.5,0.2,0.9,0.5,1.2c0.3,0.3,0.9,0.6,1.6,0.8
	c0.7,0.2,1.3,0.5,1.7,0.8c0.4,0.3,0.7,0.6,0.8,0.9c0.2,0.4,0.3,0.8,0.3,1.3c0,0.8-0.3,1.4-0.8,1.9c-0.5,0.5-1.2,0.7-2.1,0.7
	c-0.6,0-1.1-0.1-1.6-0.4c-0.5-0.2-0.8-0.6-1.1-1c-0.3-0.4-0.4-1-0.4-1.6h0.8c0,0.7,0.2,1.2,0.6,1.6c0.4,0.4,1,0.6,1.7,0.6
	c0.6,0,1.1-0.2,1.5-0.5S52.9,90.9,52.9,90.3z"/>
<path class="st0" d="M63,88.9c0,0.9-0.1,1.6-0.4,2.2c-0.3,0.6-0.6,1-1.1,1.3l1.5,1.5l-0.5,0.5l-1.7-1.7c-0.3,0.1-0.6,0.1-0.9,0.1
	c-1,0-1.8-0.3-2.3-1c-0.6-0.7-0.8-1.7-0.8-2.9v-2.2c0-1.3,0.3-2.2,0.8-2.9c0.6-0.7,1.3-1,2.3-1c1,0,1.8,0.3,2.3,1
	c0.6,0.7,0.8,1.7,0.8,3V88.9z M62.2,86.8c0-1.1-0.2-1.9-0.6-2.4c-0.4-0.5-1-0.8-1.8-0.8c-0.7,0-1.3,0.3-1.7,0.8
	c-0.4,0.5-0.6,1.3-0.6,2.4v2.2c0,1.1,0.2,1.9,0.6,2.4c0.4,0.5,1,0.8,1.8,0.8c0.8,0,1.4-0.3,1.8-0.8s0.6-1.3,0.6-2.4V86.8z"/>
<path class="st0" d="M72,82.9v6.9c0,0.9-0.3,1.7-0.8,2.2S70,92.9,69,92.9c-0.9,0-1.7-0.3-2.2-0.8c-0.5-0.5-0.8-1.3-0.8-2.2v-6.9h0.8
	v6.9c0,1.5,0.7,2.3,2.1,2.3c1.4,0,2.1-0.8,2.1-2.3v-7H72z"/>
<path class="st0" d="M79.8,88H76v4h4.4v0.7h-5.1v-9.8h5.1v0.7H76v3.7h3.8V88z"/>
<path class="st0" d="M86.6,88.6h-2.3v4.1h-0.8v-9.8h2.7c0.9,0,1.6,0.3,2.1,0.8c0.5,0.5,0.7,1.2,0.7,2.1c0,0.6-0.2,1.2-0.5,1.7
	c-0.3,0.5-0.7,0.8-1.2,1l2,4.2v0.1h-0.8L86.6,88.6z M84.3,87.9h2c0.6,0,1-0.2,1.4-0.6c0.3-0.4,0.5-0.9,0.5-1.5
	c0-0.7-0.2-1.2-0.5-1.6c-0.4-0.4-0.9-0.6-1.5-0.6h-1.9V87.9z"/>
<path class="st0" d="M96.8,90h-3.7l-0.8,2.7h-0.8l3.1-9.8h0.7l3.1,9.8h-0.8L96.8,90z M93.3,89.3h3.2L94.9,84L93.3,89.3z"/>
<path class="st0" d="M13.4,117.7v3.8c0,4.5-2.3,7.1-6.6,7.1s-6.6-2.6-6.6-7.1v-14.7c0-4.5,2.3-7.1,6.6-7.1s6.6,2.6,6.6,7.1v2.8H9.2
	v-3c0-2-0.9-2.8-2.3-2.8c-1.4,0-2.3,0.8-2.3,2.8v15.3c0,2,0.9,2.8,2.3,2.8c1.4,0,2.3-0.7,2.3-2.8v-4H13.4z"/>
<path class="st0" d="M20.6,111.9h6.1v4h-6.1v8.3h7.7v4H16.1V100h12.1v4h-7.7V111.9z"/>
<path class="st0" d="M35,107.8v20.5h-4V100h5.6l4.6,17v-17h4v28.3h-4.6L35,107.8z"/>
<path class="st0" d="M47,100h13.8v4h-4.7v24.3h-4.5V104H47V100z"/>
<path class="st0" d="M62.7,100h4.5v28.3h-4.5V100z"/>
<path class="st0" d="M73.9,107.8v20.5h-4V100h5.6l4.6,17v-17h4v28.3h-4.6L73.9,107.8z"/>
<path class="st0" d="M91.2,111.9h6.1v4h-6.1v8.3h7.7v4H86.7V100h12.1v4h-7.7V111.9z"/>
<path class="st0" d="M101.6,100h4.5v24.3h6v4h-10.5V100z"/>
<path class="st0" d="M129.6,128.3h-4.5l-0.8-5.1h-5.5l-0.8,5.1H114l4.5-28.3h6.5L129.6,128.3z M119.5,119.3h4.3l-2.1-14.3
	L119.5,119.3z"/>
<g>
	<polygon class="st1" points="85.8,44.7 112.9,24.5 85.8,4.2 58.2,23.6 56.8,22.6 85.9,2.2 115.6,24.6 85.9,46.7 33,10.4 33,39.2 
		52.1,25.8 53.6,26.8 31.3,42.4 31.3,7.3 	"/>
	<circle class="st1" cx="96.2" cy="24.5" r="2.3"/>
	<g>
		<polygon class="st0" points="70,23.6 70,17.4 59.8,24.6 70,31.5 70,25.5 68.6,24.5 		"/>
	</g>
</g>
<g>
	<polygon class="st0" points="43.9,66.3 16.8,46.1 43.9,25.8 71.5,45.1 73,44.1 43.9,23.7 14.1,46.1 43.9,68.3 96.8,32 96.8,60.8 
		77.6,47.4 76.1,48.4 98.4,64 98.4,28.9 	"/>
	<circle class="st0" cx="33.6" cy="46" r="2.3"/>
	<g>
		<polygon class="st1" points="70,46.1 59.8,39 59.8,45.1 61.1,46.1 59.8,47.1 59.8,53 		"/>
	</g>
</g>
<g>
	<polygon class="st1" points="85.8,44.7 112.9,24.5 115.6,24.6 85.9,46.7 33,10.4 31.3,7.3 	"/>
</g>
</svg>
