<?xml version="1.0" encoding="utf-8"?>
<!-- Generator: Adobe Illustrator 19.1.0, SVG Export Plug-In . SVG Version: 6.00 Build 0)  -->
<svg version="1.1" id="Capa_1" xmlns="http://www.w3.org/2000/svg" xmlns:xlink="http://www.w3.org/1999/xlink" x="0px" y="0px"
	 viewBox="0 0 192.5 53" style="enable-background:new 0 0 192.5 53;" xml:space="preserve">
<style type="text/css">
	.st0{fill:#FFFFFF;}
	.st1{fill:url(#SVGID_1_);}
	.st2{fill:url(#SVGID_2_);}
</style>
<g>
	<g>
		<g>
			<path class="st0" d="M66.2,24.6v6.1c-0.4,0.3-0.8,0.5-1.2,0.7c-0.4,0.2-0.9,0.4-1.3,0.5c-0.5,0.1-1,0.2-1.5,0.3
				c-0.5,0.1-1.1,0.1-1.7,0.1c-1.1,0-2.1-0.2-3.1-0.6c-0.9-0.4-1.7-0.9-2.4-1.6c-0.7-0.7-1.2-1.5-1.6-2.5c-0.4-1-0.6-2-0.6-3.1
				c0-1.1,0.2-2.2,0.6-3.1c0.4-1,0.9-1.8,1.6-2.5c0.7-0.7,1.5-1.2,2.5-1.6c0.9-0.4,2-0.6,3.1-0.6c0,0,0.1,0,0.1,0h0
				c1.6,0,3.4,0.4,5.4,1.1l0,3.9H66h-0.3h-0.9c-0.3,0-0.4-0.1-0.5-0.4c0-0.2-0.1-0.7-0.2-1.6c-1-0.4-2.2-0.5-3.6-0.5
				c-0.8,0-1.4,0.1-2,0.4c-0.6,0.3-1.1,0.6-1.6,1.1c-0.4,0.5-0.8,1-1,1.7c-0.2,0.7-0.3,1.4-0.3,2.2c0,0.9,0.1,1.7,0.4,2.3
				c0.2,0.7,0.6,1.3,1,1.7c0.4,0.5,1,0.8,1.6,1.1c0.6,0.2,1.3,0.4,2,0.4c0.6,0,1.2-0.1,1.7-0.2c0.5-0.1,0.9-0.3,1.4-0.5v-2.8h-1.9
				c-0.2,0-0.3-0.1-0.4-0.2c-0.1-0.1-0.2-0.2-0.2-0.4v-1.6H66.2z"/>
			<path class="st0" d="M75.5,21.6l-0.3,1.9c0,0.1-0.1,0.2-0.1,0.3c-0.1,0.1-0.2,0.1-0.3,0.1c-0.1,0-0.2,0-0.4-0.1
				c-0.2,0-0.4-0.1-0.7-0.1c-0.5,0-1,0.1-1.4,0.4c-0.4,0.3-0.7,0.7-1,1.3v4.6c0.9,0.2,0.9,0.2,1.1,0.2c0.4,0.1,0.5,0.3,0.5,0.7v1.2
				h-1.6h0h-2.6h-1.6V31c0-0.4,0.2-0.6,0.5-0.7c0.2,0,0.2,0,1.1-0.2v-6.6c-0.9-0.2-0.9-0.2-1.1-0.2c-0.4-0.1-0.5-0.3-0.5-0.7v-1.2
				h1.6v0h1.5c0.3,0,0.5,0,0.6,0.1c0.1,0.1,0.2,0.3,0.2,0.5l0.2,1.3c0.4-0.7,0.8-1.2,1.4-1.6c0.5-0.4,1.1-0.6,1.7-0.6
				C74.7,21.2,75.2,21.3,75.5,21.6z"/>
			<path class="st0" d="M88.9,31v1.2h-1.6h-1.6c-0.3,0-0.6-0.2-0.7-0.5l-0.2-0.9c-0.2,0.2-0.5,0.4-0.7,0.6c-0.2,0.2-0.5,0.3-0.8,0.5
				c-0.3,0.1-0.6,0.2-0.9,0.3c-0.3,0.1-0.6,0.1-1,0.1c-0.6,0-1.1-0.1-1.6-0.3c-0.5-0.2-0.8-0.5-1.1-0.8c-0.3-0.4-0.5-0.8-0.7-1.3
				c-0.2-0.5-0.2-1.1-0.2-1.7v-4.8c-0.9-0.2-0.9-0.2-1.1-0.2c-0.4-0.1-0.5-0.3-0.5-0.7v-1.2h1.6h2.6v6.9c0,0.7,0.2,1.2,0.5,1.5
				c0.3,0.4,0.8,0.5,1.4,0.5c0.4,0,0.9-0.1,1.3-0.3c0.4-0.2,0.8-0.5,1.1-0.8v-5.7c-0.9-0.2-0.9-0.2-1.1-0.2
				c-0.4-0.1-0.5-0.3-0.5-0.7v-1.2h1.6h0h2.6v8.7c0.9,0.2,0.9,0.2,1.1,0.2C88.7,30.4,88.9,30.6,88.9,31z"/>
			<path class="st0" d="M101.1,26.7c0,0.8-0.1,1.6-0.3,2.2c-0.2,0.7-0.5,1.3-0.9,1.8c-0.4,0.5-0.9,0.9-1.5,1.2
				c-0.6,0.3-1.2,0.4-1.9,0.4c-0.6,0-1.1-0.1-1.6-0.3c-0.4-0.2-0.8-0.4-1.1-0.8v2.3c0.3,0,0.5,0.1,0.6,0.1c0.2,0,0.3,0,0.3,0.1
				c0.1,0,0.1,0,0.1,0c0.4,0.1,0.5,0.3,0.5,0.7v1.2h-1.6h-2.6h-1.6v-1.2c0-0.4,0.2-0.6,0.5-0.7c0,0,0.1,0,0.1,0c0.1,0,0.2,0,0.3-0.1
				c0.2,0,0.4-0.1,0.6-0.1V23.5c-0.3,0-0.5-0.1-0.6-0.1c-0.2,0-0.3,0-0.3-0.1c-0.1,0-0.1,0-0.1,0c-0.4-0.1-0.5-0.3-0.5-0.7v-1.2h1.6
				l1.6,0c0.2,0,0.3,0,0.4,0.1c0.1,0.1,0.2,0.2,0.2,0.4l0.2,1c0.4-0.5,0.9-0.9,1.5-1.2c0.6-0.3,1.2-0.5,2-0.5c0.6,0,1.1,0.1,1.6,0.4
				c0.5,0.2,0.9,0.6,1.3,1.1c0.4,0.5,0.6,1,0.8,1.7C101,25.1,101.1,25.8,101.1,26.7z M98.4,26.7c0-0.6-0.1-1.2-0.2-1.6
				c-0.1-0.4-0.2-0.8-0.4-1.1c-0.2-0.3-0.4-0.5-0.7-0.6c-0.3-0.1-0.6-0.2-0.9-0.2c-0.5,0-1,0.1-1.4,0.3c-0.4,0.2-0.7,0.5-1.1,1v4.8
				c0.3,0.4,0.6,0.6,1,0.8c0.3,0.1,0.7,0.2,1.1,0.2c0.4,0,0.7-0.1,1.1-0.2c0.3-0.1,0.6-0.4,0.8-0.7s0.4-0.7,0.5-1.1
				C98.3,27.9,98.4,27.4,98.4,26.7z"/>
			<path class="st0" d="M109.3,21.6c0.7,0.3,1.2,0.6,1.7,1.1c0.5,0.5,0.8,1.1,1.1,1.7c0.3,0.7,0.4,1.5,0.4,2.3
				c0,0.9-0.1,1.6-0.4,2.3c-0.3,0.7-0.6,1.3-1.1,1.8c-0.5,0.5-1,0.9-1.7,1.1c-0.7,0.3-1.4,0.4-2.2,0.4c-0.8,0-1.5-0.1-2.2-0.4
				c-0.7-0.3-1.2-0.6-1.7-1.1c-0.5-0.5-0.8-1.1-1.1-1.8c-0.3-0.7-0.4-1.5-0.4-2.3c0-0.8,0.1-1.6,0.4-2.3c0.3-0.7,0.6-1.3,1.1-1.7
				c0.5-0.5,1-0.8,1.7-1.1c0.7-0.3,1.4-0.4,2.2-0.4C107.9,21.3,108.6,21.4,109.3,21.6z M109.1,29.5c0.4-0.6,0.6-1.5,0.6-2.6
				c0-1.2-0.2-2-0.6-2.7c-0.4-0.6-1.1-0.9-2-0.9c-0.9,0-1.6,0.3-2,0.9c-0.4,0.6-0.7,1.5-0.7,2.7c0,1.2,0.2,2,0.7,2.6
				c0.4,0.6,1.1,0.9,2,0.9C108,30.4,108.6,30.1,109.1,29.5z"/>
			<path class="st0" d="M131.6,31v1.2h-0.3H130h-1.2c-0.2,0-0.5,0-0.6-0.1c-0.2-0.1-0.3-0.2-0.4-0.4l-3.2-4.9
				c-0.1-0.2-0.3-0.3-0.4-0.4c-0.1-0.1-0.4-0.1-0.6-0.1h-1.1v3.9c0.3,0,0.5,0.1,0.6,0.1c0.2,0,0.3,0,0.3,0.1c0.1,0,0.1,0,0.1,0
				c0.4,0.1,0.5,0.3,0.5,0.7v1.2h-1.6h-2.8H118V31c0-0.4,0.2-0.6,0.5-0.7c0,0,0.1,0,0.1,0c0.1,0,0.2,0,0.3-0.1
				c0.2,0,0.4-0.1,0.6-0.1v-11c-0.3,0-0.5-0.1-0.6-0.1c-0.2,0-0.3,0-0.3-0.1c-0.1,0-0.1,0-0.1,0c-0.4-0.1-0.5-0.3-0.5-0.7V17h1.6
				h4.5c1,0,1.9,0.1,2.7,0.3c0.7,0.2,1.3,0.5,1.8,0.9c0.5,0.4,0.8,0.8,1,1.4c0.2,0.5,0.3,1.1,0.3,1.8c0,0.5-0.1,1-0.2,1.5
				c-0.2,0.5-0.4,0.9-0.7,1.2c-0.3,0.4-0.6,0.7-1.1,1c-0.4,0.3-0.9,0.5-1.4,0.7c0.4,0.2,0.7,0.5,0.9,0.9l2.4,3.5
				c0.3,0,0.5,0.1,0.6,0.1c0.2,0,0.3,0,0.4,0.1c0.1,0,0.1,0,0.2,0C131.4,30.4,131.6,30.6,131.6,31z M126.4,23.5
				c0.3-0.2,0.4-0.5,0.6-0.8c0.1-0.3,0.2-0.7,0.2-1.1c0-0.8-0.3-1.4-0.8-1.8c-0.5-0.4-1.3-0.6-2.3-0.6h-1.7v5h1.6
				c0.5,0,1-0.1,1.4-0.2C125.8,23.9,126.1,23.7,126.4,23.5z"/>
			<path class="st0" d="M139.5,21.6c0.7,0.3,1.2,0.6,1.7,1.1s0.8,1.1,1.1,1.7c0.3,0.7,0.4,1.5,0.4,2.3c0,0.9-0.1,1.6-0.4,2.3
				c-0.3,0.7-0.6,1.3-1.1,1.8s-1,0.9-1.7,1.1c-0.7,0.3-1.4,0.4-2.2,0.4c-0.8,0-1.5-0.1-2.2-0.4c-0.7-0.3-1.2-0.6-1.7-1.1
				c-0.5-0.5-0.8-1.1-1.1-1.8c-0.3-0.7-0.4-1.5-0.4-2.3c0-0.8,0.1-1.6,0.4-2.3c0.3-0.7,0.6-1.3,1.1-1.7c0.5-0.5,1-0.8,1.7-1.1
				c0.7-0.3,1.4-0.4,2.2-0.4C138.1,21.3,138.8,21.4,139.5,21.6z M139.3,29.5c0.4-0.6,0.6-1.5,0.6-2.6c0-1.2-0.2-2-0.6-2.7
				c-0.4-0.6-1.1-0.9-2-0.9c-0.9,0-1.6,0.3-2,0.9c-0.4,0.6-0.7,1.5-0.7,2.7c0,1.2,0.2,2,0.7,2.6c0.4,0.6,1.1,0.9,2,0.9
				C138.2,30.4,138.8,30.1,139.3,29.5z"/>
			<path class="st0" d="M161.7,31v1.2h-1.6h-2.6v-6.9c0-0.7-0.2-1.2-0.5-1.6c-0.3-0.3-0.7-0.5-1.3-0.5c-0.3,0-0.5,0-0.7,0.1
				c-0.2,0.1-0.4,0.2-0.6,0.4c-0.2,0.2-0.3,0.4-0.4,0.6c-0.1,0.3-0.1,0.6-0.1,0.9v4.8c0.3,0,0.5,0.1,0.6,0.1c0.2,0,0.3,0,0.3,0.1
				c0.1,0,0.1,0,0.1,0c0.4,0.1,0.5,0.3,0.5,0.7v1.2h-1.6h-2.6v-6.9c0-0.7-0.1-1.2-0.4-1.6c-0.3-0.3-0.7-0.5-1.3-0.5
				c-0.4,0-0.7,0.1-1,0.3c-0.3,0.2-0.6,0.4-0.9,0.8v5.8c0.3,0,0.5,0.1,0.6,0.1c0.2,0,0.3,0,0.3,0.1c0.1,0,0.1,0,0.1,0
				c0.4,0.1,0.5,0.3,0.5,0.7v1.2h-1.6h-2.6h-1.6V31c0-0.4,0.2-0.6,0.5-0.7c0,0,0.1,0,0.1,0c0.1,0,0.2,0,0.3-0.1
				c0.2,0,0.4-0.1,0.6-0.1v-6.6c-0.3,0-0.5-0.1-0.6-0.1c-0.2,0-0.3,0-0.3-0.1c-0.1,0-0.1,0-0.1,0c-0.4-0.1-0.5-0.3-0.5-0.7v-1.2h1.6
				l1.6,0c0.3,0,0.6,0.2,0.7,0.5l0.2,0.8c0.2-0.2,0.4-0.4,0.6-0.6c0.2-0.2,0.4-0.3,0.7-0.5c0.2-0.1,0.5-0.2,0.8-0.3
				c0.3-0.1,0.6-0.1,0.9-0.1c0.7,0,1.2,0.2,1.7,0.6c0.4,0.4,0.8,0.9,1,1.5c0.2-0.4,0.4-0.7,0.6-0.9c0.3-0.3,0.5-0.5,0.8-0.6
				c0.3-0.2,0.6-0.3,1-0.4c0.3-0.1,0.7-0.1,1-0.1c0.6,0,1.1,0.1,1.6,0.3c0.5,0.2,0.9,0.4,1.2,0.8c0.3,0.4,0.6,0.8,0.7,1.3
				c0.2,0.5,0.2,1.1,0.2,1.7v4.8c0.3,0,0.5,0.1,0.6,0.1c0.2,0,0.3,0,0.3,0.1c0.1,0,0.1,0,0.1,0C161.5,30.4,161.7,30.6,161.7,31z"/>
			<path class="st0" d="M169.4,21.6c0.6,0.2,1.1,0.5,1.5,1c0.4,0.4,0.7,0.9,1,1.5c0.2,0.6,0.3,1.3,0.3,2.1c0,0.2,0,0.4,0,0.5
				c0,0.1,0,0.2-0.1,0.3c0,0.1-0.1,0.1-0.2,0.2c-0.1,0-0.2,0-0.3,0H165c0.1,1.1,0.4,1.9,0.9,2.4c0.5,0.5,1.2,0.8,2.1,0.8
				c0.4,0,0.8,0,1.1-0.1c0.3-0.1,0.6-0.2,0.8-0.3c0.2-0.1,0.4-0.2,0.6-0.3s0.3-0.1,0.5-0.1c0.1,0,0.2,0,0.3,0.1
				c0.1,0,0.1,0.1,0.2,0.2l0.8,0.9c-0.3,0.3-0.6,0.6-1,0.8c-0.4,0.2-0.7,0.4-1.1,0.5c-0.4,0.1-0.8,0.2-1.2,0.3
				c-0.4,0.1-0.8,0.1-1.2,0.1c-0.8,0-1.4-0.1-2.1-0.4c-0.6-0.2-1.2-0.6-1.7-1.1c-0.5-0.5-0.9-1.1-1.1-1.8c-0.3-0.7-0.4-1.6-0.4-2.5
				c0-0.7,0.1-1.4,0.4-2.1c0.2-0.6,0.6-1.2,1-1.7c0.4-0.5,1-0.9,1.6-1.1c0.6-0.3,1.4-0.4,2.2-0.4C168.2,21.3,168.9,21.4,169.4,21.6z
				 M165.8,23.8c-0.4,0.4-0.7,1-0.8,1.8h4.9c0-0.3,0-0.7-0.1-1c-0.1-0.3-0.2-0.6-0.4-0.8c-0.2-0.2-0.4-0.4-0.7-0.5
				c-0.3-0.1-0.6-0.2-1-0.2C166.9,23.1,166.3,23.3,165.8,23.8z"/>
			<path class="st0" d="M181.4,21.6l-0.3,1.9c0,0.1-0.1,0.2-0.1,0.3c-0.1,0.1-0.2,0.1-0.3,0.1c-0.1,0-0.2,0-0.4-0.1
				c-0.2,0-0.4-0.1-0.7-0.1c-0.5,0-1,0.1-1.4,0.4c-0.4,0.3-0.7,0.7-1,1.3v4.6c0.9,0.2,0.9,0.2,1.1,0.2c0.4,0.1,0.5,0.3,0.5,0.7v1.2
				h-1.6h0h-2.6H173V31c0-0.4,0.2-0.6,0.5-0.7c0.2,0,0.2,0,1.1-0.2v-6.6c-0.9-0.2-0.9-0.2-1.1-0.2c-0.4-0.1-0.5-0.3-0.5-0.7v-1.2
				h1.6v0h1.5c0.3,0,0.5,0,0.6,0.1c0.1,0.1,0.2,0.3,0.2,0.5l0.2,1.3c0.4-0.7,0.8-1.2,1.4-1.6c0.5-0.4,1.1-0.6,1.7-0.6
				C180.6,21.2,181.1,21.3,181.4,21.6z"/>
			<path class="st0" d="M189.4,21.6c0.7,0.3,1.2,0.6,1.7,1.1c0.5,0.5,0.8,1.1,1.1,1.7c0.3,0.7,0.4,1.5,0.4,2.3
				c0,0.9-0.1,1.6-0.4,2.3c-0.3,0.7-0.6,1.3-1.1,1.8c-0.5,0.5-1,0.9-1.7,1.1c-0.7,0.3-1.4,0.4-2.2,0.4c-0.8,0-1.5-0.1-2.2-0.4
				c-0.7-0.3-1.2-0.6-1.7-1.1s-0.8-1.1-1.1-1.8c-0.3-0.7-0.4-1.5-0.4-2.3c0-0.8,0.1-1.6,0.4-2.3c0.3-0.7,0.6-1.3,1.1-1.7
				s1-0.8,1.7-1.1s1.4-0.4,2.2-0.4C188,21.3,188.7,21.4,189.4,21.6z M189.2,29.5c0.4-0.6,0.6-1.5,0.6-2.6c0-1.2-0.2-2-0.6-2.7
				c-0.4-0.6-1.1-0.9-2-0.9c-0.9,0-1.6,0.3-2,0.9c-0.4,0.6-0.7,1.5-0.7,2.7c0,1.2,0.2,2,0.7,2.6c0.4,0.6,1.1,0.9,2,0.9
				C188.1,30.4,188.7,30.1,189.2,29.5z"/>
		</g>
	</g>
	<path class="st0" d="M32.1,33.7l-0.8-0.1c-0.1,0-0.3-0.1-0.5-0.1l-3.2-4.8c-0.1-0.1-0.2-0.3-0.3-0.4c0.3-0.1,0.5-0.3,0.8-0.5
		c0.7-0.5,1.3-1,1.8-1.6c0.5-0.6,0.8-1.3,1.1-2.1c0.3-0.8,0.4-1.6,0.4-2.4c0-1.1-0.2-2.1-0.6-3c-0.4-0.9-1-1.7-1.8-2.4
		c-0.8-0.6-1.8-1.1-3-1.5c-1.2-0.3-2.6-0.5-4.2-0.5h-9.8v2.8c0,1,0.6,1.7,1.6,1.9l0.2-1c0,0,0,0,0,0l0,1l0.5,0.1v14.4l-0.8,0.1
		c-1,0.2-1.6,0.9-1.6,1.9v2.8h10.7v-2.8c0-1-0.6-1.7-1.6-1.9l-0.6-0.1l0-3.8h0.5c0.3,0,0.5,0,0.5,0c0,0,0.1,0.1,0.2,0.2l4.6,7.1
		c0.3,0.4,0.6,0.7,1,0.9c0.4,0.2,0.9,0.3,1.4,0.3h5.1v-2.8C33.7,34.6,33.2,33.9,32.1,33.7z"/>
	<g>
		<linearGradient id="SVGID_1_" gradientUnits="userSpaceOnUse" x1="22.4262" y1="21.3534" x2="26.9791" y2="47.1742">
			<stop  offset="0" style="stop-color:#D95536"/>
			<stop  offset="0.4857" style="stop-color:#CF4C34"/>
			<stop  offset="1" style="stop-color:#BE3D31"/>
		</linearGradient>
		<path class="st1" d="M26.3,21.9c0-1.1-0.4-2-1.1-2.6c-0.7-0.6-1.9-0.9-3.4-0.9h-2.4v7.3h2.4c0.8,0,1.5-0.1,2-0.3
			c0.6-0.2,1.1-0.5,1.4-0.8c0.4-0.3,0.6-0.7,0.8-1.2C26.2,23,26.3,22.5,26.3,21.9z"/>
		<linearGradient id="SVGID_2_" gradientUnits="userSpaceOnUse" x1="21.5836" y1="21.7849" x2="25.8364" y2="45.9037">
			<stop  offset="0" style="stop-color:#D95536"/>
			<stop  offset="0.4857" style="stop-color:#CF4C34"/>
			<stop  offset="1" style="stop-color:#BE3D31"/>
		</linearGradient>
		<path class="st2" d="M42.3,13L23.9,2.4c-0.4-0.2-1-0.4-1.6-0.4c-0.6,0-1.1,0.1-1.6,0.4L2.5,13c-0.9,0.5-1.6,1.7-1.6,2.7v21.2
			c0,1,0.7,2.2,1.6,2.7l18.4,10.6c0.4,0.2,1,0.4,1.6,0.4c0.6,0,1.1-0.1,1.6-0.4l18.4-10.6c0.9-0.5,1.6-1.7,1.6-2.7V15.7
			C43.8,14.7,43.1,13.5,42.3,13z M32.7,37.4h-0.4h-1.9h-1.8c-0.4,0-0.7-0.1-0.9-0.2c-0.3-0.1-0.5-0.3-0.6-0.6l-4.7-7.1
			c-0.2-0.3-0.4-0.5-0.6-0.6c-0.2-0.1-0.5-0.2-0.9-0.2h-1.5v5.6c0.4,0.1,0.7,0.1,0.9,0.2c0.2,0,0.4,0.1,0.5,0.1c0.1,0,0.1,0,0.2,0
			c0.5,0.1,0.8,0.4,0.8,1v1.8h-2.3h-4.1h-2.3v-1.8c0-0.5,0.3-0.8,0.8-1c0,0,0.1,0,0.2,0c0.1,0,0.2,0,0.5-0.1c0.2,0,0.5-0.1,0.9-0.2
			V18.3c-0.4-0.1-0.7-0.1-0.9-0.2c-0.2,0-0.4-0.1-0.5-0.1c-0.1,0-0.1,0-0.2,0c-0.5-0.1-0.8-0.4-0.8-1v-1.8h2.3h6.5
			c1.5,0,2.8,0.2,3.9,0.5c1.1,0.3,2,0.7,2.6,1.3c0.7,0.6,1.2,1.2,1.5,2c0.3,0.8,0.5,1.6,0.5,2.6c0,0.7-0.1,1.4-0.3,2.1
			c-0.2,0.7-0.5,1.3-0.9,1.8c-0.4,0.5-0.9,1-1.5,1.4c-0.6,0.4-1.3,0.7-2.1,1c0.5,0.3,1,0.7,1.3,1.3l3.5,5.1c0.4,0.1,0.7,0.1,0.9,0.2
			c0.2,0,0.4,0.1,0.5,0.1c0.1,0,0.2,0,0.2,0c0.5,0.1,0.8,0.4,0.8,1V37.4z"/>
	</g>
</g>
</svg>
