<?xml version="1.0" encoding="utf-8"?>
<!-- Generator: Adobe Illustrator 19.1.0, SVG Export Plug-In . SVG Version: 6.00 Build 0)  -->
<svg version="1.1" id="Capa_3" xmlns="http://www.w3.org/2000/svg" xmlns:xlink="http://www.w3.org/1999/xlink" x="0px" y="0px"
	 viewBox="-384 261.7 72.9 72.6" style="enable-background:new -384 261.7 72.9 72.6;" xml:space="preserve">
<style type="text/css">
	.st0{fill:#FFFFFF;}
</style>
<path class="st0" d="M-361.8,306.7c-4.8-3.5-9.5-7-14.2-10.4c-1.9-1.4-2.5-2.9-1.9-4.7c0.5-1.6,2-2.5,4.2-2.5c5.4,0,10.7,0,16.1,0
	c1.1,0,1.6-0.4,1.9-1.4c1.6-5.1,3.2-10.1,4.9-15.1c0.7-2.3,1.9-3.3,3.8-3.3c1.8,0,2.9,1,3.7,3.2c1.6,4.9,3.2,9.8,4.7,14.7
	c0.5,1.5,1.2,1.9,2.7,1.9c5.3-0.1,10.5-0.1,15.8,0c2.8,0,4.5,1.8,4,4.3c-0.2,1-1,2.1-1.9,2.7c-4.7,3.5-9.5,7-14.3,10.5
	c1.3,4,2.6,8,3.9,11.9c0.5,1.7,1.1,3.3,1.7,5c0.6,1.9,0.2,3.5-1.1,4.5c-1.4,1.1-3,1-4.7-0.2c-4.8-3.4-9.5-6.9-14.3-10.4
	c-3.6,2.6-7.1,5.2-10.7,7.8c-1.3,0.9-2.5,1.9-3.8,2.8c-1.6,1.1-3.2,1.2-4.6,0.1c-1.3-1-1.8-2.5-1.2-4.3
	C-365.6,318.2-363.7,312.5-361.8,306.7z M-364.7,291.7c-3,0-6,0-9.1,0c-0.6,0-1.2,0.5-1.8,0.8c0.3,0.6,0.5,1.4,1,1.8
	c4.7,3.5,9.5,7.1,14.4,10.5c1.1,0.8,1.2,1.4,0.8,2.6c-1.9,5.5-3.7,11-5.4,16.6c-0.2,0.7,0.1,1.5,0.1,2.3c0.7-0.2,1.6-0.2,2.2-0.7
	c4.8-3.4,9.5-6.9,14.3-10.4c0.8-0.6,1.3-0.6,2.1,0c4.8,3.5,9.6,7,14.4,10.4c0.6,0.4,1.4,0.4,2.1,0.6c0.1-0.8,0.4-1.6,0.2-2.2
	c-1.8-5.6-3.6-11.3-5.5-16.9c-0.3-1-0.2-1.5,0.7-2.2c4.8-3.4,9.6-6.9,14.3-10.5c0.6-0.4,0.8-1.3,1.2-1.9c-0.7-0.3-1.4-0.8-2.1-0.8
	c-5.9-0.1-11.8-0.1-17.6,0c-1.1,0-1.5-0.3-1.8-1.3c-1.8-5.6-3.6-11.3-5.5-16.9c-0.2-0.6-0.9-1.1-1.4-1.6c-0.4,0.5-1,1-1.2,1.6
	c-1.9,5.7-3.7,11.3-5.5,17c-0.3,0.9-0.7,1.2-1.6,1.2C-358.6,291.6-361.7,291.7-364.7,291.7z"/>
</svg>
