<?xml version="1.0" encoding="utf-8"?>
<!-- Generator: Adobe Illustrator 19.1.0, SVG Export Plug-In . SVG Version: 6.00 Build 0)  -->
<svg version="1.1" id="Capa_2" xmlns="http://www.w3.org/2000/svg" xmlns:xlink="http://www.w3.org/1999/xlink" x="0px" y="0px"
	 viewBox="-384 261.7 72.9 72.6" style="enable-background:new -384 261.7 72.9 72.6;" xml:space="preserve">
<style type="text/css">
	.st0{display:none;}
	.st1{display:inline;fill:#FFFFFF;}
	.st2{fill:#FFFFFF;}
</style>
<g class="st0">
	<path class="st1" d="M-333.5,306.5c4.1-4.3,5.9-9.6,5.4-15.6c-0.4-4.6-2.1-8.5-5.1-11.6c-4.1-4.1-8.7-6.2-13.8-6.2
		c-2.2,0-4.4,0.4-6.7,1.1c-6,1.9-10.5,6.4-12.4,12.3c-2,6.2-0.9,13,3,18.1c0.6,0.8,1.3,1.6,2,2.3c0.4,0.5,0.9,0.9,1.3,1.4
		c2.3,2.6,3.8,5.2,4.6,8c0.1,0.4,0.2,0.8-0.3,1.2c-0.3,0.2-0.5,0.6-0.4,1c0,0.3,0.2,0.6,0.5,0.8c0.7,0.4,0.7,0.9,0.7,1.3
		c0,0.2,0,0.4,0,0.7c0,0.5-0.1,0.8-0.5,1c-0.4,0.2-0.6,0.5-0.6,0.9c0,0.4,0.2,0.8,0.6,1.1c0.3,0.2,0.5,0.5,0.5,0.8
		c0.3,1.9,1,3.4,2.1,4.6c1.8,1.7,3.7,2.5,5.8,2.3c2.5-0.2,4.5-1.6,5.9-3.9c0.3-0.5,0.6-0.8,1.2-0.8c0.4-0.1,0.8-0.3,0.9-0.7
		c0.2-0.4,0.1-0.8-0.1-1.1c-0.1-0.2-0.3-0.3-0.6-0.5c-0.1-0.1-0.3-0.2-0.4-0.3l-0.1-0.1l0-0.5c0-0.4,0-0.8,0-1.2
		c0-0.2,0.2-0.5,0.4-0.6c0.6-0.2,0.8-0.6,0.8-1.2c0-0.6-0.4-0.9-1.1-1.1l-0.2,0l0-0.6c0-0.3,0-0.5,0-0.7c0-0.5,0-1.1,0.8-1.5
		c0.2-0.1,0.4-0.3,0.5-0.6c0.1-0.2,0-0.4-0.1-0.6c-0.5-0.8-0.2-1.4,0.1-1.9l0.1-0.2c0.3-0.6,0.5-1.1,0.8-1.6
		C-336.8,310.1-335,308.1-333.5,306.5z M-344.1,328.3c-0.8,0.9-2.2,1.4-3.5,1.4c-0.8,0-1.6-0.2-2.2-0.6l-0.6-0.4l6.8-1L-344.1,328.3
		z M-342.6,324.8c0,0.3-0.3,0.5-0.6,0.6c-2.7,0.4-5.4,0.8-8.1,1.2l-0.4,0.1c-0.1,0-0.1,0-0.2,0c0,0-0.1,0-0.1,0l-0.4,0l-0.3-2.4
		l10.1-1.4l0,0.8C-342.5,324-342.5,324.4-342.6,324.8z M-342.5,319.8c0,0.2-0.3,0.6-0.5,0.6c-2.7,0.4-5.5,0.8-8.2,1.2l-0.7,0.1
		c0,0,0,0,0,0c-0.1,0-0.1,0-0.2,0l-0.3-0.1v-2.3l10-1.4l0,0.8C-342.5,319-342.5,319.4-342.5,319.8z M-341.8,314.8
		c-0.1,0.3-0.4,0.5-0.7,0.6c-2.7,0.4-5.4,0.8-8.2,1.2l-2,0.3l-0.1-0.2c-1.3-5.2-4.4-9-7.3-12.1c-4.6-4.9-6-10.7-4.1-16.8
		c2-6.4,6.5-10.5,13-12.1c4.5-1.1,9.2-0.1,13.2,2.6c4.1,2.8,6.9,7.1,7.6,11.9c0.8,5.5-0.8,10.4-4.8,14.5
		C-338.4,308.2-340.5,311.4-341.8,314.8z"/>
	<path class="st1" d="M-327.4,272.4c-0.5-0.5-1.2-0.4-1.7,0.1l-0.2,0.1c-0.6,0.5-1.1,1.1-1.7,1.7c-0.2,0.2-0.3,0.4-0.4,0.6
		c0,0,0,0.1-0.1,0.1c0,0.6,0.2,1,0.6,1.2c0.5,0.2,0.9,0.2,1.3-0.2c0.6-0.5,1.2-1.2,2-2C-326.9,273.5-326.9,272.8-327.4,272.4z"/>
	<path class="st1" d="M-349.3,300.3c3.4-4.1,6.8-8.2,10.2-12.3c0.5-0.7,0.5-1.4,0-1.8c-0.5-0.5-1.2-0.3-1.8,0.3
		c-1.5,1.8-3,3.7-4.6,5.5l-4.8,5.8l-0.4-0.5c-0.2-0.2-0.4-0.4-0.5-0.6l-0.7-0.8c-0.5-0.5-1-1.1-1.5-1.6c-0.3-0.3-0.6-0.4-0.9-0.4
		c-0.3,0-0.5,0.1-0.8,0.3s-0.4,0.5-0.4,0.8c0,0.3,0.1,0.6,0.3,0.9c1.4,1.6,2.7,3,4,4.4c0.3,0.3,0.6,0.4,0.9,0.4
		C-349.9,300.8-349.6,300.6-349.3,300.3z"/>
</g>
<path class="st2" d="M-342.4,327.6c-1.3,3-2.5,3.8-5.7,3.6c-1.9-0.1-3.2-1.4-3.9-3.6c-0.3,0-0.7,0-1,0c-2,0.2-4.4-1.7-4.3-4.3
	c0.1-3.4,0-6.8,0-10.2c0-0.5-0.1-0.9-0.6-1.2c-5.9-4.3-8.8-10.2-8.1-17.5c0.8-8.1,7.4-15.1,15.4-16.6c10.6-1.9,20.3,5.6,21.9,15.3
	c1.3,7.8-1.6,14.1-7.9,18.8c-0.4,0.3-0.6,0.6-0.6,1.2c0,3.4-0.1,6.8,0,10.2c0.1,2.6-2.3,4.7-4.5,4.4
	C-341.8,327.6-342.1,327.6-342.4,327.6z M-339.5,310.7c0.6-0.2,1.1-0.4,1.5-0.6c5.9-3.9,8.6-11.1,6.8-18c-2.2-8.3-10.2-13.5-18.8-12
	c-12.1,2.1-16.9,15.1-11.6,24.4c1.5,2.6,3.6,4.6,6.1,6.2c0.6,0.4,1.3,0.5,2,0.5c4.4,0,8.9,0,13.3,0c0.2,0,0.4,0,0.7,0
	C-339.5,310.9-339.5,310.7-339.5,310.7z M-344.8,325.3c1.3,0,2.6,0,3.8,0c0.8,0,1.4-0.4,1.4-1c0.1-1.2,0-2.4,0-3.6
	c-5.1,0-10.2,0-15.2,0c0,0.1-0.1,0.2-0.1,0.2c0,0.9,0,1.8,0,2.8c0,1.2,0.5,1.6,1.7,1.6c0.5,0,1,0,1.5,0c0.7,0,1.4,0,2.1,0
	c0,0.8,0,1.4,0,2.1c0,0.9,0.4,1.3,1.3,1.4c0.7,0.1,1.4,0.1,2.1,0c0.9-0.1,1.3-0.6,1.4-1.5C-344.8,326.7-344.8,326-344.8,325.3z
	 M-354.8,318.2c5.2,0,10.2,0,15.3,0c0-1.6,0-3.1,0-4.6c-5.1,0-10.2,0-15.3,0C-354.8,315.1-354.8,316.6-354.8,318.2z"/>
<path class="st2" d="M-366.1,306.1c0.4,0.7,0.8,1.3,1.2,2c-2.5,1.5-5.1,2.9-7.7,4.4c-0.4-0.7-0.8-1.3-1.2-2
	C-371.3,309.1-368.7,307.6-366.1,306.1z"/>
<path class="st2" d="M-329.3,308c0.4-0.7,0.8-1.3,1.2-2c2.6,1.5,5.1,2.9,7.7,4.4c-0.4,0.7-0.8,1.3-1.2,2
	C-324.2,311-326.7,309.5-329.3,308z"/>
<path class="st2" d="M-321.7,280.3c0.4,0.7,0.8,1.3,1.2,2c-2.6,1.5-5.1,2.9-7.7,4.4c-0.4-0.7-0.8-1.4-1.2-2
	C-326.8,283.2-324.3,281.8-321.7,280.3z"/>
<path class="st2" d="M-337.6,277.4c1.5-2.6,2.9-5.1,4.4-7.7c0.7,0.4,1.3,0.8,2,1.2c-1.5,2.6-2.9,5.1-4.4,7.7
	C-336.2,278.1-336.9,277.8-337.6,277.4z"/>
<path class="st2" d="M-365,284.8c-0.4,0.7-0.8,1.3-1.2,2c-2.6-1.5-5.1-2.9-7.7-4.4c0.4-0.7,0.8-1.4,1.2-2
	C-370.1,281.9-367.6,283.3-365,284.8z"/>
<path class="st2" d="M-361.3,269.8c1.5,2.6,2.9,5.1,4.4,7.7c-0.7,0.4-1.3,0.8-2,1.2c-1.5-2.6-2.9-5.1-4.4-7.7
	C-362.6,270.6-362,270.2-361.3,269.8z"/>
<path class="st2" d="M-317.1,297.5c-2.9,0-5.8,0-8.8,0c0-0.8,0-1.5,0-2.3c2.9,0,5.8,0,8.8,0C-317.1,295.9-317.1,296.7-317.1,297.5z"
	/>
<path class="st2" d="M-348.4,266.3c0.8,0,1.5,0,2.3,0c0,2.9,0,5.8,0,8.8c-0.8,0-1.5,0-2.3,0C-348.4,272.2-348.4,269.3-348.4,266.3z"
	/>
<path class="st2" d="M-377.3,297.6c0-0.7,0-1.5,0-2.3c2.9,0,5.8,0,8.8,0c0,0.8,0,1.5,0,2.3C-371.4,297.6-374.3,297.6-377.3,297.6z"
	/>
<path class="st2" d="M-340.7,295.5c0.7,0.7,1.2,1.2,1.7,1.7c-2.8,2.8-5.6,5.6-8.4,8.4c-2.7-2.8-5.5-5.6-8.3-8.4c0.5-0.4,1-1,1.6-1.5
	c2.2,2.2,4.4,4.5,6.7,6.8C-345.2,300.1-343,297.8-340.7,295.5z"/>
</svg>
