<?xml version="1.0" encoding="utf-8"?>
<!-- Generator: Adobe Illustrator 19.1.0, SVG Export Plug-In . SVG Version: 6.00 Build 0)  -->
<svg version="1.1" xmlns="http://www.w3.org/2000/svg" xmlns:xlink="http://www.w3.org/1999/xlink" x="0px" y="0px"
	 viewBox="-384 261.7 72.9 72.6" style="enable-background:new -384 261.7 72.9 72.6;" xml:space="preserve">
<style type="text/css">
	.st0{fill:#FFFFFF;}
</style>
<g id="Capa_1">
</g>
<g id="Capa_2">
	<path class="st0" d="M-314.2,300.7c-0.1-2.9-2.2-5.3-4.8-5.5c-3.6-0.1-7.1-0.1-10.9-0.1c-1.6,0-3.2,0-4.8,0h-0.7l-0.2-0.7
		c-1.4-3.9-3-4.9-7.5-4.9c-0.9,0-1.7,0-2.6,0c-1.8,0-3.6,0-5.4,0c-4.4-0.2-6.9,1.2-7.8,4.4l-0.2,0.7h-0.7c-1.6,0-3.2,0-4.8,0
		c-3.7,0-7.2-0.1-10.7,0.1c-2.9,0.1-5,2.5-5.1,5.7c0,2.7,0,5.4,0,8.1c0,1.3,0,2.6,0,3.9c0,2.4,1.1,4.2,3.3,5.6
		c0.8,0.5,1.4,1.5,1.5,2.4c0.1,0.8,0,1.6,0,2.3c0,0.9,0,3.8,0.1,4.7c0.1,0.3,0.6,1,0.9,1.1c0.2,0,0.8-0.4,0.9-0.7
		c0.1-2.5,0.1-7,0.1-9.6c0-0.6,0-1.1,0-1.7c-0.3,0-0.7,0-1-0.1c-2.4-0.2-3.7-1.6-3.8-4c0-3.9,0-7.8,0-11.7c0-2.4,1.4-3.9,3.7-4
		c3.7-0.1,7.5-0.1,11.7,0c2.2,0,3.7,1.5,3.7,3.8c0,4,0,8.1,0,12.2c0,2-1.2,3.3-3.3,3.6c-0.5,0.1-0.9,0.1-1.4,0.1c0,0.6,0,1.2,0,1.7
		c0,2.6,0,7.2,0.1,9.7c0.2,0.2,0.7,0.6,0.9,0.6c0.2-0.1,0.7-0.6,0.9-0.9c0.3-0.8,0.2-3.9,0.1-4.9c-0.1-1.2-0.6-4.8,3.6-5.7l0.4-0.1
		l0.4,0.3c0.1,0.1,0.3,0.2,0.4,0.4c0.2,0.2,0.5,0.4,0.7,0.5c2.3,0.9,2.4,2.7,2.3,4.1c-0.1,1.3-0.2,4.8,0.1,6c0.1,0.4,0.7,0.9,1,1
		c0.2-0.1,0.7-0.5,0.8-0.7c0.1-2.6,0.1-7.1,0.1-9.8c0-0.6,0-1.1,0-1.7c-0.4,0-0.7,0-1,0c-2.3-0.1-3.7-1.6-3.7-3.9
		c0-5.7,0-11.6,0-17.5c0-2.3,1.5-3.8,3.8-3.9c3.8-0.1,7.6-0.1,11.5,0c2.3,0,3.8,1.5,3.8,3.7c0.1,6,0.1,12,0,17.9
		c0,2-1.4,3.4-3.6,3.6c-0.4,0-0.7,0.1-1.1,0.1l0,1.9c0,2.3,0,6.6,0,8.9c0,0.5,0.1,0.9,0.3,1.1c0.1,0.1,0.4,0.2,0.7,0.2
		c0.3,0,0.9,0,1-1.3c0-0.5,0-1,0-1.4c0-1.1,0-4.3,0.1-5.5c0.1-0.9,0.7-1.8,1.2-2.3c0.5-0.4,1.1-0.8,1.6-1.1c0.2-0.1,0.4-0.2,0.6-0.4
		l0.6-0.3l0.5,0.4c0.1,0.1,0.3,0.2,0.4,0.3c0.1,0.1,0.3,0.2,0.4,0.3c2.8,0.8,2.7,3.2,2.6,4.5l0,0.4c-0.1,1.1-0.2,4.2,0.1,5.2
		c0.1,0.4,0.7,0.9,1,1c0.2-0.1,0.7-0.5,0.8-0.7c0.1-2.5,0.1-7,0.1-9.7c0-0.6,0-1.1,0-1.7c-0.3,0-0.5,0-0.8,0c-2.5-0.1-3.9-1.5-4-3.8
		c-0.1-4-0.1-8.1,0-12.1c0-2.4,1.5-3.8,4-3.8c3.9,0,7.5,0,11.1,0c2.4,0,3.9,1.5,4,3.9c0.1,3.9,0.1,7.9,0,11.9c0,2.3-1.5,3.7-3.9,3.9
		c-0.3,0-0.6,0-0.9,0l0,1.9c0,2.3,0,6.5,0,8.8c0,0.6,0.1,1.1,0.3,1.3c0.1,0.1,0.2,0.2,0.7,0.2c0.3,0,1,0,1-1.5c0-1.4,0-4.7,0-6.1
		l0-2.4l0.6-0.3c2.8-1.3,4.2-3.1,4.3-5.7C-314.1,309.2-314.1,305-314.2,300.7z"/>
	<path class="st0" d="M-355.1,278.4c0,4.2,3.6,7.7,7.8,7.7c4.3,0,7.8-3.6,7.7-7.9c0-4.2-3.5-7.7-7.7-7.7c0,0,0,0,0,0
		c-2.1,0-4,0.8-5.5,2.3C-354.4,274.4-355.2,276.3-355.1,278.4z M-347.4,272.7c1.5-0.1,3,0.5,4.1,1.6c1.1,1.1,1.8,2.5,1.8,4
		c0,3-2.5,5.7-5.6,5.7c0,0-0.1,0-0.1,0c-3,0-5.6-2.5-5.6-5.5C-352.9,275.4-350.5,272.8-347.4,272.7z"/>
	<path class="st0" d="M-326.3,291.8c2.1,0.1,4-0.8,5.5-2.2c1.5-1.5,2.3-3.4,2.3-5.6c0-4.2-3.4-7.7-7.6-7.8c0,0-0.1,0-0.1,0
		c-2,0-3.9,0.8-5.4,2.2c-1.5,1.5-2.3,3.4-2.3,5.6C-334,288.3-330.6,291.7-326.3,291.8z M-330.3,279.9c1.1-1.1,2.5-1.7,4-1.7h0
		c0,0,0,0,0,0c3.2,0,5.8,2.5,5.8,5.7c0,3.1-2.5,5.7-5.6,5.7c0,0-0.1,0-0.1,0c-1.4,0-2.8-0.6-3.9-1.6c-1.2-1.1-1.8-2.7-1.8-4.3
		C-331.8,282.3-331.3,280.9-330.3,279.9z"/>
	<path class="st0" d="M-376.6,283.5c0,4.3,3.5,7.7,7.9,7.7c2,0,3.9-0.8,5.4-2.3c1.5-1.5,2.2-3.4,2.2-5.5c0-2.1-0.8-4-2.3-5.4
		s-3.4-2.2-5.5-2.2c0,0-0.1,0-0.1,0C-373.3,275.7-376.6,279.2-376.6,283.5z M-368.9,277.7c1.6,0,3,0.6,4.1,1.7
		c1.1,1.1,1.7,2.5,1.7,4c0,3.1-2.5,5.6-5.6,5.7c0,0-0.1,0-0.1,0c-1.5,0-2.8-0.6-3.9-1.6c-1.1-1.1-1.8-2.6-1.8-4.1
		C-374.5,280.3-372,277.7-368.9,277.7z"/>
</g>
</svg>
