<?xml version="1.0" encoding="utf-8"?>
<!-- Generator: Adobe Illustrator 19.1.0, SVG Export Plug-In . SVG Version: 6.00 Build 0)  -->
<svg version="1.1" id="Capa_2" xmlns="http://www.w3.org/2000/svg" xmlns:xlink="http://www.w3.org/1999/xlink" x="0px" y="0px"
	 viewBox="-384 261.7 72.9 72.6" style="enable-background:new -384 261.7 72.9 72.6;" xml:space="preserve">
<style type="text/css">
	.st0{fill:#FFFFFF;}
</style>
<path class="st0" d="M-326.8,307.5c2.4-2.4,5.1-5.3,6.9-8.8c2.2-4.1,2.9-7.9,2.2-11.6v0c-0.9-4.7-3.3-8.6-7.2-11.6
	c-3.9-3-8.2-4.1-12.8-3.3c-2.9,0.5-5.7,1.6-8.5,3.3c-0.7,0.4-1.2,0.4-1.9,0c-0.8-0.5-1.9-1.1-2.9-1.6c-2.8-1.3-5.5-2-8.1-2
	c-0.7,0-1.5,0.1-2.2,0.2c-4.5,0.6-8.3,2.9-11.4,6.7c-3.8,4.8-5,10.1-3.3,15.7c1,3.5,3.1,6.9,6.2,10.4c6.8,7.4,14.5,13.9,22,20.3
	l0.7,0.6l2.3-1.9C-337.9,318-332.2,313-326.8,307.5z M-346.6,322.7l-0.5,0.4l-2.2-1.9c-1.3-1.1-2.6-2.3-3.9-3.4
	c-4.9-4.3-10.1-8.9-14.8-14.1l-0.2-0.3c-0.7-0.7-1.4-1.5-2-2.3c-2-2.6-4.2-6.2-4.4-10.7c-0.2-5.5,2.1-10.1,6.9-13.6
	c4.8-3.5,10.2-3.9,16-1.2c1.3,0.6,2.4,1.3,3.6,2c0.4,0.3,0.8,0.5,1.2,0.7c3.1-2.4,6.4-3.9,9.8-4.4c4-0.6,7.7,0.4,11.1,2.9
	c3.5,2.6,5.7,6.1,6.4,10.2c0.6,3.3,0,6.7-2,10.5c-1.4,2.7-3.4,4.9-5.5,7.2C-333.3,311.4-340,317.1-346.6,322.7z"/>
</svg>
