<?xml version="1.0" encoding="utf-8"?>
<!-- Generator: Adobe Illustrator 19.1.0, SVG Export Plug-In . SVG Version: 6.00 Build 0)  -->
<svg version="1.1" id="Capa_2" xmlns="http://www.w3.org/2000/svg" xmlns:xlink="http://www.w3.org/1999/xlink" x="0px" y="0px"
	 viewBox="-384 261.7 72.9 72.6" style="enable-background:new -384 261.7 72.9 72.6;" xml:space="preserve">
<style type="text/css">
	.st0{fill:#FFFFFF;}
</style>
<path class="st0" d="M-373.6,276.2h3.8v1.6c0,2.9,0,5.8,0,8.7c0,7.1,0,14.4,0,21.5c0,1.9,0.7,3.7,1.9,4.9c1.2,1.2,2.9,1.8,4.7,1.7
	c2-0.1,4-0.1,6,0c0.9,0,1.8,0,2.7,0h2l-0.8,1.1c-0.1,0.2-0.2,0.4-0.3,0.5l-1.4,1.9c-1.3,1.8-2.5,3.5-3.8,5.3
	c-0.2,0.3-0.4,0.8-0.4,1.2c0,0.6,0.6,0.8,0.9,0.9c0.5,0.1,0.9-0.1,1.3-0.7l2.4-3.3c1.4-2,2.9-4,4.3-6.1c0.3-0.5,0.8-0.9,1.7-0.9
	c0.7,0,1.4,0,2.1,0c0.2,0,0.5,0,0.7,0c0.6,0,1.1,0,1.7,0c0.5,0,1.1,0.3,1.4,0.7c0.6,0.7,1.1,1.5,1.6,2.2c0.2,0.3,0.4,0.6,0.6,0.9
	l1.3,1.9c1.1,1.6,2.2,3.1,3.3,4.6c0.3,0.5,0.8,0.7,1.2,0.7c0.4,0,0.7-0.2,0.9-0.6c0.3-0.5,0.2-1-0.2-1.6c-1.4-1.9-2.7-3.8-4.1-5.7
	l-1-1.5c-0.1-0.2-0.2-0.3-0.4-0.5l-0.8-1.2l4.5,0c2.2,0,4.3,0,6.5,0c1.5,0.1,2.7-0.3,3.7-1.1c1.7-1.2,2.6-3,2.6-5.3
	c0-9.4,0-18.7,0-28.1l0-0.9c0-0.2,0-0.4,0-0.7c0-0.8-0.1-1.7,0.4-2.2c0.4-0.5,1.2-0.4,2-0.4c0.3,0,0.5,0,0.8,0c0.2,0,0.4,0,0.6,0
	v-2.3h-54.5V276.2z M-367.5,277.5c0-0.2,0-0.4,0-0.6l0-0.8h42.1l0,32c0,2.7-1.4,4.1-4.1,4.1c-5.1,0-10.2,0-15.3,0
	c-6.3,0-12.5,0-18.8,0c-2.6,0-4-1.4-4-4c0-9.3,0-18.7,0-28L-367.5,277.5z"/>
<path class="st0" d="M-355.7,286.2l-6.6,5.2l1.5,1.9c0.1-0.1,0.3-0.2,0.4-0.3l2.1-1.7c2.5-1.9,5-3.9,7.4-5.9
	c0.6-0.5,1.2-0.5,1.9-0.2c1.7,0.9,3.4,1.9,5.1,2.8c2,1.1,4,2.2,6.1,3.3c0.4,0.2,0.5,0.2,0.8-0.1c1.6-1.6,3.1-3.1,4.7-4.6l2-2
	c0,0,0,0,0,0l-1.8-1.8l-5.5,5.9l-3.9-2.1c-2.8-1.5-5.5-3-8.3-4.5c-0.3-0.2-0.5-0.2-0.8,0.1C-352.3,283.6-354,284.9-355.7,286.2z"/>
<rect x="-348" y="292.4" class="st0" width="2.3" height="12.9"/>
<rect x="-337.2" y="296.6" class="st0" width="2.3" height="8.7"/>
<rect x="-357.5" y="297.7" class="st0" width="2.3" height="7.6"/>
</svg>
