<?xml version="1.0" encoding="utf-8"?>
<!-- Generator: Adobe Illustrator 19.1.0, SVG Export Plug-In . SVG Version: 6.00 Build 0)  -->
<svg version="1.1" xmlns="http://www.w3.org/2000/svg" xmlns:xlink="http://www.w3.org/1999/xlink" x="0px" y="0px"
	 viewBox="-384 261.7 72.9 72.6" style="enable-background:new -384 261.7 72.9 72.6;" xml:space="preserve">
<style type="text/css">
	.st0{fill:#FFFFFF;}
</style>
<g id="Capa_1">
</g>
<g id="Capa_2">
	<path class="st0" d="M-316.5,306.9c-1.1-1.1-2.5-1.7-3.6-2.2c-0.6-0.2-0.8-0.6-0.8-1.2l0-0.9c-0.1-1.1-0.1-2.3-0.3-3.5
		c-1.7-8.9-6.7-15.4-14.9-19.5c-0.6-0.3-1-0.6-0.9-1.5c0-0.4,0-0.7-0.2-0.9c-0.2-0.2-0.5-0.3-1-0.3l-0.5,0c-1,0-2.1,0-3.1,0
		c-0.8,0-1.3-0.2-1.9-0.8c-1.3-1.6-2.8-2.1-4.6-1.8c-1.2,0.3-2.1,0.9-3,2c-0.3,0.4-0.7,0.6-1.3,0.6c-1.2,0-2.3,0-3.4,0l-0.4,0
		c-0.5,0-0.9,0.1-1.1,0.3c-0.2,0.2-0.2,0.5-0.2,1c0,0.7-0.2,1.1-0.8,1.4c-9.5,4.9-14.7,12.9-15.3,23.7c0,0.6-0.2,1.1-1,1.4
		c-1.5,0.6-2.6,1.3-3.5,2.2c-1.1,1.1-1.2,2.1-0.4,3.4c0.3,0.5,0.7,1,1.1,1.4l0.8,0.7c1.1,0.9,2.3,1.9,3.5,2.6
		c7.3,4.3,15.8,6.7,24.7,6.9c5.9,0,11.5-0.8,16.6-2.3c4.8-1.5,8.7-3.3,12.1-5.6c1.2-0.9,2.7-1.9,3.7-3.4
		C-315.2,309.1-315.3,308.1-316.5,306.9z M-369.8,293.7c2.4-5.3,6.2-9.3,11.3-12c0.1-0.1,0.2-0.1,0.4-0.2l0.7-0.3l0.1,1.2
		c0,0.5,0.1,0.9,0.1,1.4c0.3,3.2,0.5,6.5,0.8,9.7c0.1,1.1,0.4,1.3,0.8,1.3c0.3,0.1,0.6,0,0.8-0.2c0.2-0.2,0.3-0.5,0.3-0.8
		c-0.1-1.5-0.2-2.9-0.3-4.4l-0.9-10.7h3.4l0,0.6c0,0.2,0,0.4,0,0.5l0,21.5c0,0.3,0,0.6,0.1,0.8c0.1,0.4,0.4,0.6,0.9,0.6
		c0.4,0,0.8-0.3,0.9-0.7c0.1-0.2,0.1-0.5,0.1-0.7l0-7.4c0-4.8,0-9.5,0-14.3c0-0.4,0.1-0.8,0.1-1.1l0.1-0.4c0.1-0.9,0.7-1.6,1.7-2
		c1.1-0.4,2.4-0.3,3.3,0.5c0.9,0.8,1.1,1.8,1.1,2.7c0,2.7,0,5.4,0,8.1l0,13.9c0,1.4,0.6,1.4,0.9,1.4c0.3,0,0.5-0.1,0.6-0.2
		c0.2-0.2,0.3-0.6,0.3-1.2l0-22.7h3.4l-0.1,2.1c-0.1,1.3-0.2,2.5-0.3,3.8c-0.1,1.5-0.3,3.1-0.4,4.6c-0.1,1.5-0.3,3-0.4,4.6
		c0,0.6,0.3,1,0.8,1c0.6,0.1,0.9-0.3,1-0.8c0.1-1.4,0.3-2.7,0.4-4.1l0.6-7.8c0-0.1,0-0.2,0.1-0.3l0.1-0.6l0.6,0.2
		c0.1,0,0.2,0.1,0.3,0.1c7.6,3.9,12,10.1,13.2,18.3c0.2,1.4,0.2,2.8,0.2,4.2c0,0.7,0,1.4,0.1,2.1c0,0.7-0.4,0.9-0.7,1
		c-2.7,1.3-5.7,2.4-9.1,3.1c-4.6,1-9.4,1.5-14.5,1.5c-1.9,0-3.8-0.1-5.7-0.2c-5.9-0.4-10.9-1.4-15.4-3.1c-1-0.4-2-0.8-2.9-1.3
		l-0.2-0.1c-0.3-0.1-0.6-0.5-0.6-0.9C-372.2,301.6-371.5,297.4-369.8,293.7z M-317.7,309.7c-0.5,0.8-1.1,1.5-1.7,2
		c-1.7,1.5-3.8,2.6-5.5,3.4c-4.4,2.1-9.1,3.5-14.4,4.3c-2.7,0.4-5.4,0.6-8.1,0.6c-2.1,0-4.1-0.1-6.2-0.4c-7.3-0.9-13.4-2.8-18.8-5.9
		c-1.3-0.8-2.6-1.7-3.8-2.8c-0.9-0.9-1.3-1.5-1.2-2.2c0.1-0.8,1.1-1.4,1.9-1.8c0.2-0.1,0.4-0.2,0.7-0.3l0.8-0.3l0.1,0.6
		c0,0.1,0.1,0.2,0,0.3c0,0.5,0.2,0.8,0.7,1.1c2.4,1.3,5,2.3,8.3,3.2c6.3,1.7,13,2.3,20.6,2.1c6.3-0.2,11.4-1.1,16-2.6
		c2-0.7,4.1-1.6,6-2.4l0.2-0.1c1-0.4,1-0.4,1.1-1.8l0.1-0.6l0.5,0.3c0.2,0.1,0.5,0.3,0.7,0.4c0.5,0.3,1,0.5,1.5,0.8
		c0.4,0.3,0.7,0.6,0.7,0.9C-317.3,309-317.4,309.3-317.7,309.7z"/>
</g>
</svg>
